<svg xmlns="http://www.w3.org/2000/svg" viewBox="0 0 478.72 121">
  <title>logo_orizzontale_WHITE</title>
  <g id="Layer_2" data-name="Layer 2">
    <path
      d="M167.38,10.2c0-1.08-.14-1.36-1.14-1.44l-4.49-.5V3.66H180.8v4.6L176,8.84c-1.07.14-1.14.28-1.14,1.36V37.78c0,12.93-7.21,18.75-19.56,18.75-13.63,0-19.19-6.32-19.19-19V10.2c0-1.08-.14-1.36-1.14-1.44l-4.5-.5V3.66H150.4v4.6l-4.78.58c-1.07.14-1.14.28-1.14,1.36V36.35c0,9.12,3.14,13.22,11.27,13.22s11.63-3.38,11.63-13Z"
      style="fill:#fff"/>
    <path
      d="M207.2,55.67V51.15l3.57-.44c1-.14,1.14-.57,1.14-1.43V32.61c0-4.31-.5-7.9-5.07-7.9-3.64,0-7.42,2-9.77,3.74V49.13c0,1.15.07,1.3,1.14,1.44l3.78.5v4.6h-17.7V51l3.43-.43c1-.14,1.14-.36,1.14-1.44V26c0-.79-.21-1.29-.93-1.5L184,23.13l.71-4.6h10.56l.57,3.95.29.08c4-2.73,8.21-4.75,13.34-4.75,7.71,0,10.64,4.89,10.64,13.15V49.13c0,1.15.07,1.3,1.14,1.44l3.92.5v4.6Z"
      style="fill:#fff"/>
    <path
      d="M228.25,55.67V51.15l4.28-.58c1-.14,1.14-.36,1.14-1.44V26c0-.79-.21-1.29-.92-1.5l-3.93-1.37.71-4.6h12.35v30.6c0,1.15.07,1.3,1.14,1.44l4.21.5v4.6Zm8.63-44.18c-3.42,0-5.35-1.94-5.35-5.38S233.46.86,236.88.86s5.36,1.87,5.36,5.25S240.24,11.49,236.88,11.49Z"
      style="fill:#fff"/>
    <path
      d="M263.64,55.67,251.87,25.14c-.29-.86-.64-1-1.5-1.22l-3-.65.93-4.74h16.84v4.74l-4.78.58,8.78,23.92h.28l8.85-23.92-4.71-.58.79-4.74h14.7v4.74l-2.43.44c-.93.14-1.43.28-1.78,1.22L273.13,55.67Z"
      style="fill:#fff"/>
    <path
      d="M321.73,53.16A29.73,29.73,0,0,1,308,56.53c-13.27,0-17.63-8.55-17.63-19.61,0-13,7.5-19.11,16.84-19.11,9,0,15.13,4.82,15.13,17.32,0,.93-.07,2.8-.21,4.16H299.11C299.47,46,302,49.92,309,49.92c3.49,0,6.2-.71,10.49-2.51Zm-7.56-19.83c0-7-3.22-9.27-7.07-9.27-4.07,0-7.56,2.73-7.92,9.27Z"
      style="fill:#fff"/>
    <path
      d="M327.37,55.67V51l3.42-.43c1-.14,1.14-.36,1.14-1.44V26a1.35,1.35,0,0,0-.92-1.5l-3.93-1.37.71-4.6h10.64l.78,5.25.22.07c2.35-3.09,5.7-6,10.49-6a26.18,26.18,0,0,1,5.56.65V30.24L349.06,30l-.86-4.45c-.07-.65-.21-.79-.85-.79-2.71,0-5.78,2.37-7.21,3.74V49.06c0,1.15.14,1.37,1.21,1.44l6.71.57v4.6Z"
      style="fill:#fff"/>
    <path
      d="M380.6,29.24l-.79-4.17a1.06,1.06,0,0,0-.78-1,19.3,19.3,0,0,0-5.14-.71c-4.57,0-6.78,1.65-6.78,4.52,0,3.81,4,4.67,8.49,5.75,5.64,1.36,12,3.09,12,11.28,0,8.47-7,11.63-15.13,11.63-6.13,0-12.13-1.65-13.41-2.51V44.25l5.92.36.72,4.38c.14.58.21.79.85,1A21.1,21.1,0,0,0,373,51c4.43,0,7.14-1.29,7.14-5,0-4-4.57-4.67-9.35-5.75-5.42-1.22-11.13-2.95-11.13-10.56,0-8.69,7.21-11.93,14.91-11.93a36,36,0,0,1,12,2.09v9.7Z"
      style="fill:#fff"/>
    <path
      d="M391.59,55.67V51.15l4.28-.58c1-.14,1.14-.36,1.14-1.44V26c0-.79-.21-1.29-.93-1.5l-3.92-1.37.71-4.6h12.35v30.6c0,1.15.07,1.3,1.14,1.44l4.21.5v4.6Zm8.63-44.18c-3.42,0-5.35-1.94-5.35-5.38S396.8.86,400.22.86s5.35,1.87,5.35,5.25S403.58,11.49,400.22,11.49Z"
      style="fill:#fff"/>
    <path
      d="M440.11,54a26.09,26.09,0,0,1-10.56,2.51c-7.49,0-10.63-3.3-10.63-10.41v-21c0-.43,0-.72-.57-.72h-5.14v-5.1c5.56-.72,7.78-4.52,8.7-10.84h5.21v9.33c0,.51,0,.72.57.72H438v5.89H427.12V44c0,4.46,1.15,6.11,5.14,6.11a19.7,19.7,0,0,0,6.21-1.22Z"
      style="fill:#fff"/>
    <path
      d="M467.51,55.67l-.71-4.24-.22-.07A17.18,17.18,0,0,1,454,56.53c-9,0-10.21-6.17-10.21-10.2,0-7.18,4.42-10.63,13.13-11.35l9.06-.72V30.6c0-4.52-.78-7-6.28-7-3.92,0-6.56.29-6.56,5.25l-7.71-.72c0-9.2,8.35-10.35,14.42-10.35,10.34,0,14.2,3,14.2,12.86V49.13c0,1.15.07,1.3,1.14,1.44l3.5.5v4.6Zm-4-40.51L450.89,4.81,455.81,0l11,12.07ZM466,39.51l-6.78.57c-5.35.51-7,2-7,5.46s1.64,4.6,4.57,4.6c3.49,0,7.06-2.16,9.2-4.31Z"
      style="fill:#fff"/>
    <path
      d="M158.7,120.15l-.67-4.22-.45-.07A17,17,0,0,1,144.92,121c-8.56,0-14.22-5.28-14.22-18.63,0-14.21,7-19.85,15.64-19.85a18.9,18.9,0,0,1,11,3.21V73.6a1.27,1.27,0,0,0-1-1.43l-4.24-1.36.74-4.57H165.7v47.41c0,1.14.08,1.28,1.19,1.43l3.65.5v4.57Zm-1.56-27.63a14.71,14.71,0,0,0-8.64-3.43c-6.41,0-8.94,5.43-8.94,13.07,0,8.78,2.76,12.13,7.75,12.13,3.65,0,7.22-2.14,9.83-4.78Z"
      style="fill:#fff"/>
    <path
      d="M174.12,120.15v-4.5l4.47-.57c1-.15,1.19-.36,1.19-1.43v-23c0-.79-.23-1.28-1-1.5l-4.1-1.36.75-4.56h12.88v30.41c0,1.14.08,1.28,1.19,1.43l4.4.5v4.57Zm9-43.91c-3.58,0-5.59-1.93-5.59-5.36s2-5.21,5.59-5.21,5.58,1.86,5.58,5.21S186.63,76.24,183.13,76.24Z"
      style="fill:#fff"/>
    <path
      d="M261.9,101.23c-.89.07-1.19.28-1.19,1v15.35c-5.66,2.57-13.11,3.42-19.29,3.42-20.33,0-27.33-11.49-27.33-26.84S223.25,67.53,242,67.53c5.36,0,12.28,1.28,16.83,4.14V85.16l-8.27-.57-1.12-6.42c-.22-1-.52-1.29-1.19-1.43a28.71,28.71,0,0,0-6.85-.93c-9.61,0-15.34,7-15.34,18.21,0,11.78,5.21,18.77,15.86,18.77a40.92,40.92,0,0,0,6.18-.5c.82-.14,1.19-.35,1.19-1.28v-9.35h-8.26l1-6.43H265v5.71Z"
      style="fill:#fff"/>
    <path
      d="M302.19,117.36A36,36,0,0,1,286.92,121c-14.37,0-19.28-8.56-19.28-19.7,0-12.92,8.26-19.06,18.46-19.06,9.83,0,16.39,4.92,16.39,17.27,0,.86-.08,3.36-.15,4.79H279.55c.37,5.07,2.68,8.42,8.79,8.42,2.9,0,6-.64,11.09-2.43ZM291.47,97.51c-.08-6-2.54-7.56-5.59-7.56s-5.81,1.71-6.25,7.56Z"
      style="fill:#fff"/>
    <path
      d="M334.14,120.15V97.09c0-3.43-.22-6.29-3.95-6.29a15.44,15.44,0,0,0-7.74,2.64v19.14c0,1.14.07,1.28,1.19,1.43l3.57.5v5.64H306.66v-5.71L310,114c1-.15,1.19-.36,1.19-1.43v-21c0-.79-.22-1.29-1-1.5l-4-1.36.9-5.78h13l.59,3.71.3.15a22.4,22.4,0,0,1,13.11-4.57c8.12,0,11.24,4.28,11.24,12.13v18.21c0,1.14.08,1.28,1.2,1.43l3.72.5v5.64Z"
      style="fill:#fff"/>
    <path
      d="M353.21,101.8c0-11.85,6.47-19.56,20.1-19.56s19.14,7.85,19.14,18.77c0,12.14-6.4,20-20.11,20S353.21,113,353.21,101.8Zm27.48-.43c0-8.43-2.69-11.42-7.53-11.42S365,92.87,365,101.44s2.91,12.07,7.9,12.07C377.71,113.51,380.69,110.29,380.69,101.37Z"
      style="fill:#fff"/>
    <path
      d="M409.73,120.15,397.89,90.59c-.37-.86-.67-1-1.56-1.21l-3.13-.65L394.39,83h20.18v5.78l-4.76.57,7.59,20.35h.52l7.9-20.35L421,88.73,422,83h17.2v5.78l-2.68.43c-1,.22-1.49.36-1.86,1.21l-11.85,29.78Z"
      style="fill:#fff"/>
    <path
      d="M464.77,120.15l-.75-3.86-.37-.07A17.17,17.17,0,0,1,451.14,121c-9.38,0-10.87-6.14-10.87-10.56,0-7.14,4.61-10.43,13.92-11l8.57-.57V94.94c0-3.35-.38-5.64-5-5.64-3.58,0-5.44.5-5.44,4.79l-10.5-.86c0-9.64,9.16-11,16-11,11.32,0,15.86,2.92,15.86,12.92v17.35c0,1.14.08,1.28,1.2,1.43l3.57.57v5.64Zm-2-15.35-5.07.35c-4.39.29-6,1.36-6,4.22s1.79,3.92,4.25,3.92a12.53,12.53,0,0,0,6.78-2.57Z"
      style="fill:#fff"/>
    <rect x="0.77" y="3.66" width="93.39" height="30.14" style="fill:none"/>
    <rect x="52.72" y="4.2" width="41.46" height="9.28" style="fill:#fff"/>
    <polygon points="0.77 33.8 42.22 33.8 42.22 23.99 0.77 23.99 0.77 13.48 42.22 13.48 42.22 4.2 0.77 4.2 0.77 33.8"
             style="fill:#fff"/>
    <polygon points="52.73 23.99 52.73 33.8 94.19 33.8 94.19 13.48 94.17 23.99 52.73 23.99" style="fill:#fff"/>
    <rect x="42.22" y="3.66" width="10.51" height="0.54" style="fill:#e3e3e3"/>
    <path
      d="M94.18,34.49V33.8H.77v.69l0,1.9v2.88l0,3.61L.87,47,1,51.38l.23,4.4L1.57,60,2,63.76l.55,3.39.65,3L4,73l.82,2.53.89,2.36.94,2.22,1,2.16,1,2.14,1.1,2.13,1.18,2.14,1.29,2.15L13.63,93l1.58,2.19L17,97.39l2,2.29L21.13,102l2.48,2.38,2.81,2.42,3.21,2.44,3.65,2.44,4.15,2.45,4.72,2.44L47.47,119l5.33-2.41,4.71-2.44,4.15-2.45,3.66-2.44,3.2-2.44,2.82-2.42L73.81,102,76,99.68l2-2.29,1.76-2.24L81.31,93l1.42-2.17L84,88.64l1.19-2.14,1.09-2.13,1-2.14,1-2.16,1-2.22.88-2.36L91,73l.74-2.76.65-3,.56-3.39L93.37,60l.33-4.19.23-4.4L94.08,47l.08-4.12,0-3.61V34.49ZM47.47,108.21A35.38,35.38,0,1,1,82.85,72.84,35.37,35.37,0,0,1,47.47,108.21Z"
      style="fill:none"/>
    <path
      d="M47.25,120.08l-5.58-2.53-4.75-2.45-4.18-2.46-3.69-2.47-3.24-2.46L23,105.27l-2.51-2.41-2.22-2.37-2-2.3-1.78-2.26-1.59-2.22-1.44-2.2-1.31-2.16L9,87.19,7.84,85l-2-4.32-1-2.25L4,76.1l-.83-2.56-.75-2.8-.66-3.08-.56-3.43L.7,60.42.37,56.2.14,51.78,0,47.38l-.11-7.74V36.75l0-33.42,94.71-.15,0,33.57,0,6.5-.08,4.12-.14,4.39-.23,4.41-.33,4.2-.45,3.82-.56,3.42-.65,3.08-.75,2.79-.83,2.57-.89,2.38-1,2.26-1,2.17-1,2.15-1.11,2.15-1.19,2.15-1.3,2.17-1.44,2.19-1.59,2.22-1.78,2.26-2,2.31-2.21,2.36-2.5,2.4-2.84,2.45-3.23,2.46-3.69,2.47-4.19,2.47-4.74,2.46ZM1.65,5.08l0,31.67,0,6.48.08,4.11.15,4.36.22,4.38.33,4.17L2.88,64l.55,3.35.64,3L4.8,73l.8,2.48.87,2.3L7.4,80l2,4.24,1.08,2.11,1.17,2.11,1.27,2.11,1.4,2.14,1.55,2.16,1.73,2.2,1.94,2.24,2.16,2.31L24.15,104l2.76,2.38,3.16,2.39,3.6,2.42,4.1,2.41L42.43,116l4.82,2.18L52.13,116l4.66-2.41,4.1-2.42,3.6-2.41,3.15-2.4,2.76-2.38,2.43-2.34L75,99.29,76.92,97l1.73-2.2,1.55-2.16,1.4-2.13,1.27-2.11L84,86.33l1.08-2.1,2-4.25.93-2.2.87-2.31.8-2.48.73-2.71.63-3,.55-3.34.44-3.74.32-4.14.23-4.38.14-4.36.11-7.7V4.93Z"
      style="fill:#fff"/>
    <polygon
      points="51.46 71.16 55.28 72.19 54.08 76.38 53.58 76.33 52.81 76.33 52.41 76.36 52.15 76.36 51.95 76.34 51.8 76.31 51.64 76.26 51.54 76.24 51.42 76.22 51.25 76.25 51.14 76.43 51.14 76.62 51.18 76.75 51.24 76.85 51.3 76.92 51.41 77.02 51.54 77.12 51.91 77.33 51.91 77.34 51.86 77.35 51.57 77.39 51.21 77.41 50.79 77.43 50.4 77.47 50 77.54 49.56 77.42 51.46 71.16"
      style="fill:#e3e3e3"/>
    <polygon
      points="49.52 78.16 49.55 78.06 49.6 77.97 49.68 77.89 49.77 77.82 49.99 77.74 50.29 77.69 50.49 77.66 50.8 77.64 51.22 77.62 51.59 77.6 51.9 77.56 52.04 77.52 52.13 77.49 52.15 77.47 52.2 77.43 52.22 77.39 52.22 77.33 52.19 77.28 52.13 77.22 52.02 77.15 51.66 76.94 51.54 76.86 51.45 76.78 51.41 76.73 51.37 76.66 51.35 76.58 51.35 76.49 51.38 76.44 51.42 76.44 51.5 76.45 51.59 76.47 51.75 76.51 51.92 76.55 52.14 76.58 52.41 76.57 52.82 76.54 53.57 76.54 53.75 76.57 53.94 76.59 54.13 78.73 53.97 78.86 53.77 78.99 53.6 79.08 53.28 79.23 53.02 79.34 52.77 79.44 52.41 79.56 52.08 79.66 51.65 79.76 51.32 79.81 50.96 79.83 50.6 79.8 50.21 79.67 49.94 79.5 49.77 79.31 49.62 79 49.56 78.8 49.51 78.53 49.51 78.28 49.52 78.16"
      style="fill:#fff"/>
    <polygon
      points="44.3 54.59 44.57 54.89 44.87 55.07 45.27 55.18 45.28 55.41 45.31 55.53 45.35 55.62 45.39 55.67 45.47 55.7 45.76 55.64 46.42 55.59 47.27 55.51 48.16 55.52 49.09 55.52 49.66 55.57 50.38 55.66 50.94 55.71 51.05 55.69 51.11 55.58 51.15 55.41 51.17 55.29 51.17 55.19 51.2 55.17 51.37 55.14 51.58 55.06 51.8 54.94 51.98 54.78 52.16 54.55 52.28 54.28 52.34 53.93 52.32 53.68 52.24 53.43 52.08 53.13 51.88 52.92 51.52 52.71 51.3 52.65 50.9 52.63 50.58 52.57 50.35 52.49 50.12 52.38 49.79 52.18 49.38 51.8 49.36 51.74 49.22 51.51 49.05 51.34 48.8 51.17 48.45 51.06 48.17 51.04 47.77 51.12 47.61 51.2 47.35 51.39 47.28 51.45 47.09 51.74 46.91 51.96 46.68 52.16 46.39 52.34 46.09 52.49 45.7 52.6 45.3 52.63 45.05 52.67 44.77 52.78 44.55 52.93 44.33 53.17 44.2 53.42 44.11 53.74 44.13 54.17 44.3 54.59"
      style="fill:none"/>
    <path
      d="M58,99.18l-.32-1.4L57.27,96,57,94.43l-.23-3.77-.11-3.52-.06-2.89,0-1.87v-.66l-.21.18-.54.58-.46.43-.6.6-.64-6.92.32-.78.67,6.74.7-.78,1-1.25.57-.72.63-.85.31-.68.42-1.18.27-.89.16-.79,0-.74L59,73.11l-.45-1.28-.92-2.19-.91-2-.2-.31-1.28-1.61-1-1.21a.52.52,0,0,0,.12-.17.45.45,0,0,0,0-.39l-.43-.71-.81-1.12-.27-.26-.16-.11-.16-.08L52,61.65l0,0-.18-.17-.13-.23L51.55,61l-.06-.29v-.44l0-.21,0-.24,0-.21v-.54l0-.31-.08-.53-.22-1L51,56.16l0-.31-.78-.08L49,55.68l-1.1,0-.5,0-.64,0-.68.07-.65.07-.19.46-.28.8-.12.69,0,.67V59l-.07.77-.19.89-.21.65-.27.63-.19.35-.34.46-.57.16-.64.45L40.31,66a.44.44,0,0,0,0,.58l0,0-.16.21-.23.36-.17.32-.25.54-.25.62-.41,1.18L38.56,71l-.49,1.38-.26.51-.51.79-.61.86-.49.69-.43.65-.31.54-.27.65-.08.31,0,.26v.11l-.48-.1-.39-.05h-.15l-.16,0-.13,0-.19.14-.09.17,0,.24v0l-.27.1-.43.24-.39.32-.21.26-.13.23,0,.07,0,.19,0,.23.07.2,0,.15.08.16.33.45.36.34.22.15.19.1.3.1.25,0,.18,0,.9-.38.61-.16.47,0,.28,0,0,.09v.31l.11.47.05.36.08.41.14.5,0,.13.1.18.08.1.11.1.11,0,.16,0,.12,0,.18-.06.11-.06.13-.08.09-.08.18-.18.23-.28.23-.36.27-.46.18-.37.45-1.07.35-1,.39-1.25.18-1.65.29-2.27.2-1.37.42-2.55.39.17-.44,2.88-.43,3.21-.36,3.42-.3,3.45-.55,5L39.1,92l-.43,2.15-.52,2.13-.59,2.15-.34,1.63-.35,2-.22,1.43-.2,1.38,23,.2-1-4.14ZM35.48,80.55l-.52.11-.87.39-.23,0h-.17L33.47,81,33.34,81,33,80.68l-.33-.41-.2-.43,0-.17v-.06l.28-.41.32-.27.49-.25.49-.1-.06-.23,0-.19,0-.07.15-.06.81.13.15.53.39,1,.23.5.14.37ZM45.75,57.64l0-.27.06-.2.09-.2.07-.11.08-.11.08-.08.09-.07.09-.06.11-.06.13,0,.11,0,.24,0h.42l.37,0h.68l.31,0h.46l.2,0,.16,0,.2.09.14.09.14.13.12.16.14.31.07.26,0,.41,0,.45-.09.63-.42,1.45-.16.5-.09.45,0,.34V62l0,.25,0,.09-.4.11-1.87.17H46.2l.24-.39,0-.35v-.49l0-.2a.22.22,0,0,0,0,.11l.29.22.05,0,.37.17.46.08.33,0,.28-.06.25-.08.59-.3.33-.22a.22.22,0,0,0,.06-.3.22.22,0,0,0-.31-.06l-.31.21-.3.17-.21.09-.43.11-.26,0-.22,0-.12,0-.25-.1-.31-.23a.22.22,0,0,0-.31,0,.2.2,0,0,0,0,.13l0-.15-.11-.38-.16-.44L46,59.76l-.14-.51-.1-.5,0-.4,0-.49Zm3.61,7.24L47,65.34h-1l-2.73-.08h-.61l-.86.08.29-.4L43,64l.3-.24,2.6-.28h1.52l1.17-.07,1.26-.21.72-.24,1.26-.39h.31l.09,0,.59.7.44.68Z"
      style="fill:none"/>
    <polygon
      points="52.2 62.56 52.11 62.53 52.07 62.53 52 62.53 51.8 62.54 50.54 62.93 49.82 63.17 48.56 63.38 47.39 63.45 45.87 63.44 43.27 63.72 42.97 63.96 42.15 64.95 41.86 65.35 42.72 65.27 43.33 65.27 46.06 65.35 47.04 65.34 49.36 64.88 53.23 63.94 52.79 63.26 52.2 62.56"
      style="fill:#fff"/>
    <path
      d="M45.8,58.75l.1.5.14.51.11.34.16.44.11.38,0,.15a.2.2,0,0,1,0-.13.22.22,0,0,1,.31,0l.31.23.25.1.12,0,.22,0,.26,0,.43-.11.21-.09.3-.17.31-.21a.22.22,0,0,1,.31.06.22.22,0,0,1-.06.3l-.33.22-.59.3-.25.08-.28.06-.33,0-.46-.08-.37-.17-.05,0-.29-.22a.22.22,0,0,1,0-.11l0,.2v.49l0,.35-.24.39h1.17l1.87-.17.4-.11,0-.09,0-.25v-.28l0-.34.09-.45.16-.5.42-1.45.09-.63,0-.45,0-.41-.07-.26-.14-.31L50,56.71l-.14-.13-.14-.09-.2-.09-.16,0-.2,0h-.46l-.31,0h-.68l-.37,0h-.42l-.24,0-.11,0-.13,0-.11.06-.09.06-.09.07-.08.08-.08.11-.07.11-.09.2-.06.2,0,.27,0,.22,0,.49Z"
      style="fill:#fff"/>
    <path
      d="M47.55,39.45A34.33,34.33,0,1,0,81.87,73.78,34.33,34.33,0,0,0,47.55,39.45Zm-3.35,14,.13-.25.22-.24.22-.15.28-.11.25,0,.4,0,.39-.12.3-.15.29-.19.23-.19.18-.22.19-.29.07-.06.26-.19.16-.08.4-.08.28,0,.35.12.25.16.17.17.14.23,0,.07.41.37.33.21.23.1.23.08.32.06.4,0,.22.06.36.21.2.21.16.3.08.25v.25l0,.35-.12.27-.18.23-.18.16-.22.13-.21.07-.18,0,0,0v.1l0,.12,0,.17-.06.11-.11,0-.56-.05-.72-.09-.57,0H47.27l-.84.08-.67,0-.29.06-.08,0,0-.05,0-.09,0-.12v-.23l-.4-.11-.3-.18-.27-.3-.17-.42,0-.43ZM36.45,104.9l.2-1.38.22-1.43.35-2,.34-1.63.59-2.15.52-2.13L39.1,92l.53-3.22.55-5,.3-3.45.36-3.42.43-3.21.44-2.88-.39-.17-.42,2.55-.2,1.37-.29,2.27-.18,1.65-.39,1.25-.35,1L39,81.74l-.18.37-.27.46-.23.36-.23.28-.18.18-.09.08-.13.08-.11.06-.18.06-.12,0-.16,0-.11,0-.11-.1-.08-.1-.1-.18,0-.13-.14-.5-.08-.41-.05-.36-.11-.47v-.31l0-.09-.28,0-.47,0-.61.16-.9.38-.18,0-.25,0-.3-.1-.19-.1-.22-.15-.36-.34-.33-.45-.08-.16,0-.15-.07-.2,0-.23,0-.19,0-.07.13-.23.21-.26.39-.32.43-.24.27-.1v0l0-.24.09-.17.19-.14.13,0,.16,0h.15l.39.05.48.1v-.11l0-.26.08-.31.27-.65.31-.54.43-.65.49-.69.61-.86.51-.79.26-.51L38.56,71l.36-1.12.41-1.18.25-.62.25-.54.17-.32.23-.36.16-.21,0,0a.44.44,0,0,1,0-.58l2.06-2.71.64-.45.57-.16.34-.46.19-.35.27-.63.21-.65.19-.89.07-.77v-.5l0-.67.12-.69.28-.8.19-.46.65-.07.68-.07.64,0,.5,0,1.1,0,1.14.09.78.08,0,.31.23,1.05.22,1,.08.53,0,.31v.54l0,.21,0,.24,0,.21v.44l.06.29.09.25.13.23.18.17,0,0,.46.07.16.08.16.11.27.26.81,1.12.43.71a.45.45,0,0,1,0,.39.52.52,0,0,1-.12.17l1,1.21,1.28,1.61.2.31.91,2,.92,2.19L59,73.11l.18,1.56,0,.74-.16.79-.27.89-.42,1.18-.31.68-.63.85-.57.72-1,1.25-.7.78-.67-6.74-.32.78.64,6.92.6-.6.46-.43.54-.58.21-.18v.66l0,1.87.06,2.89.11,3.52L57,94.43,57.27,96l.37,1.82.32,1.4.43,1.78,1,4.14Z"
      style="fill:#fff"/>
    <polygon
      points="35.44 79.65 35.05 78.69 34.9 78.16 34.09 78.03 33.94 78.09 33.91 78.16 33.94 78.35 34 78.58 33.51 78.68 33.02 78.93 32.7 79.2 32.42 79.61 32.42 79.63 32.42 79.67 32.45 79.84 32.65 80.27 32.98 80.68 33.34 80.95 33.47 81.02 33.69 81.09 33.86 81.1 34.09 81.05 34.96 80.67 35.48 80.55 35.81 80.52 35.67 80.15 35.44 79.65"
      style="fill:#fff"/>
  </g>
</svg>
