<svg xmlns="http://www.w3.org/2000/svg" viewBox="0 0 275.1 74.32">
  <title>logo_UniGe_WHITE</title>
  <g id="Layer_2" data-name="Layer 2">
    <path
      d="M49.58,12.47c0-1.44-.19-1.83-1.54-1.92l-6-.67V3.74H67.61V9.88l-6.43.76c-1.44.2-1.53.39-1.53,1.83V49.29c0,17.26-9.69,25-26.28,25C15.06,74.32,7.58,65.88,7.58,49V12.47c0-1.44-.2-1.83-1.54-1.92L0,9.88V3.74H26.75V9.88l-6.42.76c-1.44.2-1.53.39-1.53,1.83v34.9C18.8,59.55,23,65,34,65s15.63-4.51,15.63-17.36Z"
      style="fill:#fff"/>
    <path
      d="M103.08,73.17v-6l4.8-.58c1.34-.19,1.53-.77,1.53-1.92V42.39c0-5.76-.67-10.55-6.81-10.55-4.89,0-10,2.68-13.14,5V64.44c0,1.54.1,1.73,1.54,1.92l5.08.67v6.14H72.3V66.93l4.6-.57c1.34-.19,1.54-.48,1.54-1.92V33.56c0-1.05-.29-1.72-1.25-2l-5.28-1.82,1-6.14h14.2l.76,5.27.39.1c5.37-3.64,11-6.33,17.93-6.33,10.36,0,14.29,6.52,14.29,17.55V64.44c0,1.54.09,1.73,1.53,1.92l5.28.67v6.14Z"
      style="fill:#fff"/>
    <path
      d="M131.36,73.17v-6l5.76-.77c1.34-.19,1.53-.48,1.53-1.92V33.56c0-1.05-.29-1.72-1.25-2l-5.27-1.82,1-6.14h16.59V64.44c0,1.54.1,1.73,1.53,1.92l5.66.67v6.14Zm11.61-59c-4.61,0-7.19-2.59-7.19-7.19s2.58-7,7.19-7,7.19,2.49,7.19,7S147.47,14.19,143,14.19Z"
      style="fill:#fff"/>
    <path
      d="M222.84,47.76c-1.15.09-1.53.38-1.53,1.34V69.72c-7.29,3.45-16.88,4.6-24.84,4.6-26.18,0-35.19-15.44-35.19-36.06s11.79-35.77,36-35.77c6.9,0,15.82,1.73,21.67,5.56V26.18l-10.64-.77-1.44-8.63c-.29-1.34-.67-1.72-1.53-1.92a35.7,35.7,0,0,0-8.83-1.24c-12.37,0-19.75,9.39-19.75,24.45,0,15.82,6.71,25.22,20.42,25.22a51.72,51.72,0,0,0,8-.67c1.06-.19,1.54-.48,1.54-1.73V48.33H196l1.35-8.63h29.44v7.67Z"
      style="fill:#fff"/>
    <path
      d="M274.72,69.43a44.92,44.92,0,0,1-19.66,4.89c-18.51,0-24.84-11.51-24.84-26.47,0-17.36,10.65-25.6,23.78-25.6,12.66,0,21.1,6.61,21.1,23.2,0,1.16-.09,4.51-.19,6.43H245.56C246,58.69,249,63.2,256.88,63.2c3.74,0,7.77-.87,14.29-3.26ZM260.91,42.77c-.1-8.06-3.26-10.17-7.19-10.17-4.13,0-7.48,2.31-8.06,10.17Z"
      style="fill:#fff"/>
  </g>
</svg>
