<?xml version="1.0" encoding="utf-8"?>
<!-- Generator: Adobe Illustrator 17.0.0, SVG Export Plug-In . SVG Version: 6.00 Build 0)  -->
<!DOCTYPE svg PUBLIC "-//W3C//DTD SVG 1.1//EN" "http://www.w3.org/Graphics/SVG/1.1/DTD/svg11.dtd">
<svg version="1.1" id="Capa_1" xmlns="http://www.w3.org/2000/svg" xmlns:xlink="http://www.w3.org/1999/xlink" x="0px" y="0px"
	 width="1190.55px" height="841.89px" viewBox="0 0 1190.55 841.89" enable-background="new 0 0 1190.55 841.89"
	 xml:space="preserve">
<linearGradient id="SVGID_1_" gradientUnits="userSpaceOnUse" x1="589.6996" y1="710.344" x2="589.6996" y2="334.6506">
	<stop  offset="0" style="stop-color:#A3CAE2"/>
	<stop  offset="0.3819" style="stop-color:#CBE4F7"/>
</linearGradient>
<path fill="url(#SVGID_1_)" d="M96.669,710.344h977.766c0,0,36.783-37.357,36.783-94.298c0-56.941-37.822-60.577-61.097-95.75
	c-23.275-35.173-20.111-76.32-82.998-93.984s-85.253,36.546-138.908,27.936c-53.655-8.61-49.499-38.127-140.106-38.331
	c-90.607-0.204-116.276-82.523-194.93-81.251c-102.81,1.663-95.794,79.421-171.438,93.397
	c-56.44,10.428-129.061-52.881-188.496-6.638c-59.435,46.242-19.119,90.299-41.147,141.837S49.703,655.016,96.669,710.344z"/>
<g>
	<g>
		<g>
			<g>
				
					<line fill="none" stroke="#01004C" stroke-width="1.2" stroke-linecap="round" stroke-linejoin="round" stroke-miterlimit="10" x1="883.47" y1="580.054" x2="883.47" y2="711.091"/>
				
					<line fill="none" stroke="#01004C" stroke-width="1.2" stroke-linecap="round" stroke-linejoin="round" stroke-miterlimit="10" x1="948.926" y1="580.054" x2="948.926" y2="711.091"/>
				
					<line fill="none" stroke="#01004C" stroke-width="1.2" stroke-linecap="round" stroke-linejoin="round" stroke-miterlimit="10" x1="1008.911" y1="573.263" x2="1008.911" y2="711.091"/>
			</g>
			<g>
				<path fill="#D64949" d="M989.05,582.915h-51.623v-5.722h51.623c11.882,0,22.198-8.076,25.087-19.637
					c5.659-22.647,11.878-67.61,10.775-119.798l5.722-0.119c1.114,52.75-5.2,98.315-10.946,121.303
					C1016.162,573.057,1003.562,582.915,989.05,582.915z"/>
				<path fill="#E95F5C" d="M930.448,577.194h58.602c11.882,0,22.198-8.076,25.087-19.637c5.659-22.647,11.878-67.61,10.775-119.798
					h-58.602c1.103,52.188-5.117,97.151-10.775,119.798C952.647,569.117,942.33,577.194,930.448,577.194z"/>
				<rect x="878.825" y="577.193" fill="#FC7E7E" width="58.602" height="5.722"/>
			</g>
		</g>
		<g>
			<g>
				<path fill="#282766" d="M934.212,540.818c-46.026,11.344-97.664,48.042-116.198,124.121l11.318,4.527
					c0,0,34.03-63.521,87.224-78.234c53.195-14.713,53.496-33.437,53.496-33.437l-1.886-16.977H934.212z"/>
				<polygon fill="#4C2F05" points="825.203,682.303 796.227,667.297 818.014,664.939 829.332,669.466 				"/>
				<linearGradient id="SVGID_2_" gradientUnits="userSpaceOnUse" x1="885.8218" y1="572.1752" x2="970.0527" y2="572.1752">
					<stop  offset="0.0945" style="stop-color:#000000;stop-opacity:0"/>
					<stop  offset="1" style="stop-color:#000000"/>
				</linearGradient>
				<path opacity="0.5" fill="url(#SVGID_2_)" d="M934.212,540.818c-15.67,3.862-31.988,10.671-47.432,20.965
					c-0.922,7.124-2.449,25.091,2.586,41.749c8.361-5.275,17.453-9.607,27.189-12.3c53.195-14.713,53.496-33.437,53.496-33.437
					l-1.886-16.977H934.212z"/>
			</g>
			<g>
				<polygon fill="#4C2F05" points="927.029,697.932 895.544,706.504 909.983,690.019 921.378,685.689 				"/>
				<path fill="#282766" d="M950.812,540.818c-32.822,14.336-59.608,39.646-58.854,79.62c0.755,39.974,18.024,69.581,18.024,69.581
					l11.395-4.331c0,0-8.833-37.838-1.288-61.622c7.545-23.784,26.555-47.556,46.55-46.55c19.995,1.006,25.043-14.379,29.696-35.189
					L950.812,540.818z"/>
			</g>
			<g>
				<path fill="#FCD98E" d="M934.212,540.818c0,0,33.703,7.042,62.123,1.509c0,0,8.803-41.248,0-76.459
					c-8.803-35.212-33.954-47.284-54.578-17.606c-20.624,29.678-41.751,48.793-67.153,56.59v11.318c0,0,44.517-9.054,71.429-31.439
					C946.033,484.731,945.53,521.703,934.212,540.818z"/>
				<linearGradient id="SVGID_3_" gradientUnits="userSpaceOnUse" x1="976.6167" y1="498.5314" x2="949.0239" y2="482.6007">
					<stop  offset="0.2323" style="stop-color:#000000;stop-opacity:0"/>
					<stop  offset="1" style="stop-color:#000000"/>
				</linearGradient>
				<path opacity="0.5" fill="url(#SVGID_3_)" d="M977.745,459.945l-31.819,28.022c0,0.002-0.001,0.005-0.001,0.008
					c-0.249,5.617-1.066,17.746-3.656,29.964C964.348,518.146,991.082,498.499,977.745,459.945z"/>
				<linearGradient id="SVGID_4_" gradientUnits="userSpaceOnUse" x1="928.7665" y1="505.2109" x2="928.7665" y2="456.8763">
					<stop  offset="0.2323" style="stop-color:#000000;stop-opacity:0"/>
					<stop  offset="1" style="stop-color:#000000"/>
				</linearGradient>
				<path opacity="0.5" fill="url(#SVGID_4_)" d="M905.068,505.197c0,0,36.892-31.803,47.362-48.32c0,0,1.362,27.123-12.683,38.138
					C925.7,506.028,905.068,505.197,905.068,505.197z"/>
				<path fill="#FCD98E" d="M970.074,433.486c17.71,3.395,11.674,32.382-3.668,53.006c-15.342,20.624-47.032,33.703-78.22,33.2
					v-11.569c0,0,34.848-5.03,49.24-24.648C951.818,463.856,953.886,430.382,970.074,433.486z"/>
			</g>
			<g>
				<path fill="#66461D" d="M968.138,427.223c6.254-3.546,8.517-9.959,7.197-14.487c0,0,13.582-6.414,7.734-17.732
					c-5.848-11.318-0.189-17.732-10.186-21.316c-9.997-3.584-18.109,0-18.109,0s-14.999-8.3-20.232,5.659
					c-5.233,13.959,13.819,19.883,13.819,19.883L968.138,427.223z"/>
				<path fill="#FFADB7" d="M967.16,410.41c4.276-4.527,6.917-12.953,0.377-13.33c-6.539-0.377-4.276,6.916-7.042,8.3
					c-2.767,1.383-1.692-7.002-8.048-10.438c-4.653-2.515-8.677-1.509-8.677-1.509s-0.755,10.061-4.024,15.45
					c0,0,1.257,1.401,3.772,1.401c0,0-1.132,15.091,14.336,14.462l1.132,8.539c0,0,3.27,1.774,9.557-0.993
					c0,0-0.629-6.917-0.629-9.683C967.915,419.841,962.885,414.937,967.16,410.41"/>
				
					<radialGradient id="SVGID_5_" cx="944.8673" cy="437.7238" r="5.2766" gradientTransform="matrix(0.9989 -0.0475 0.0475 0.9989 -12.1905 21.1778)" gradientUnits="userSpaceOnUse">
					<stop  offset="0" style="stop-color:#000000"/>
					<stop  offset="1" style="stop-color:#000000;stop-opacity:0"/>
				</radialGradient>
				<circle opacity="0.51" fill="url(#SVGID_5_)" cx="952.429" cy="413.539" r="5.277"/>
				<path fill="none" stroke="#3D3234" stroke-width="0.5" stroke-linecap="round" stroke-miterlimit="10" d="M945.836,402.651
					c0,0,1.795-1.505,4.052,0.231"/>
				<linearGradient id="SVGID_6_" gradientUnits="userSpaceOnUse" x1="958.1296" y1="424.3528" x2="962.0273" y2="427.0819">
					<stop  offset="0" style="stop-color:#000000"/>
					<stop  offset="0.7913" style="stop-color:#000000;stop-opacity:0"/>
				</linearGradient>
				<path opacity="0.75" fill="url(#SVGID_6_)" d="M958.518,429.752c4.65-1.975,5.25-6.579,5.25-6.579s-2.518,1.216-5.913,1.572
					L958.518,429.752z"/>
			</g>
		</g>
	</g>
	<g>
		<path fill="#A9B2BF" d="M900.761,526.045h-85.253c-1.256,0-2.273-1.018-2.273-2.273v-2.76h87.526V526.045z"/>
		<path fill="#FFFFFF" d="M856.998,521.012h48.069l-16.129-61.85c-0.351-1.346-1.567-2.286-2.958-2.286h-28.982V521.012z"/>
		<path fill="#FFFFFF" d="M955.338,526.045h-54.576v-5.033h54.576c1.39,0,2.517,1.127,2.517,2.517l0,0
			C957.854,524.918,956.728,526.045,955.338,526.045z"/>
		<path fill="#C1C7D3" d="M884.036,456.876h-83.972c-1.798,0-3.111,1.699-2.657,3.439l15.829,60.696h87.526L884.036,456.876z"/>
	</g>
	<g>
		
			<line fill="none" stroke="#01004C" stroke-width="2" stroke-linecap="round" stroke-linejoin="round" stroke-miterlimit="10" x1="783.054" y1="529.785" x2="783.054" y2="711.091"/>
		
			<line fill="none" stroke="#01004C" stroke-width="2" stroke-linecap="round" stroke-linejoin="round" stroke-miterlimit="10" x1="996.336" y1="529.785" x2="996.336" y2="711.091"/>
		
			<line fill="none" stroke="#01004C" stroke-width="2" stroke-linecap="round" stroke-linejoin="round" stroke-miterlimit="10" x1="1072.292" y1="529.785" x2="1072.292" y2="711.091"/>
		<rect x="756.897" y="526.045" fill="#62A5E7" width="262.578" height="7.48"/>
		<rect x="1019.475" y="526.045" fill="#4091D3" width="64.387" height="7.48"/>
	</g>
</g>
<line fill="none" stroke="#91B6E0" stroke-width="2" stroke-linecap="round" stroke-linejoin="round" stroke-miterlimit="10" x1="96.669" y1="711.344" x2="1074.434" y2="711.344"/>
<g>
	<g>
		<path fill="#DD92EA" d="M269.154,701.281c71.173,3.425,166.312-34.298,166.685-82.292c0.373-47.994-27.595-63.531-71.791-69.056
			c-44.196-5.524-87.356,0-116.705-6.215c-29.349-6.215-106.346-31.766-128.444,27.968S157.051,695.887,269.154,701.281z"/>
		<path fill="none" stroke="#AAAAAF" stroke-linecap="round" stroke-linejoin="round" stroke-miterlimit="10" d="M180.359,568.579
			c28.313,14.157,78.378,11.394,120.157,0c41.779-11.394,75.798,6.906,75.798,6.906"/>
	</g>
	<g>
		<g>
			<g>
				<polygon fill="#FCFCFC" points="319.806,276.498 126.854,276.498 126.854,341.139 213.353,341.139 228.028,356.368 
					228.028,341.139 319.806,341.139 				"/>
			</g>
			<g>
				<polygon fill="none" stroke="#01004C" stroke-linecap="round" stroke-linejoin="round" stroke-miterlimit="10" points="
					319.806,276.498 126.854,276.498 126.854,341.139 213.353,341.139 228.028,356.368 228.028,341.139 319.806,341.139 				"/>
			</g>
		</g>
		<g>
			<circle fill="none" stroke="#91B6E0" stroke-miterlimit="10" cx="164.365" cy="303.818" r="16.844"/>
			<circle fill="#91B6E0" cx="164.365" cy="298.769" r="5.01"/>
			<path fill="#91B6E0" d="M164.365,305.543c-5.767,0-10.442,4.675-10.442,10.442c0,0.363,0.019,0.722,0.055,1.076
				c2.863,2.249,6.464,3.601,10.387,3.601c3.923,0,7.524-1.353,10.387-3.601c0.036-0.354,0.055-0.712,0.055-1.076
				C174.807,310.218,170.132,305.543,164.365,305.543z"/>
		</g>
		<rect x="185.051" y="294.297" fill="#91B6E0" width="107.954" height="1.135"/>
		<g>
			<polygon fill="#F2D422" points="194.195,325.049 189.371,327.585 190.292,322.214 186.39,318.409 191.783,317.626 
				194.195,312.738 196.607,317.626 202.001,318.409 198.098,322.214 199.019,327.585 			"/>
			<polygon fill="#F2D422" points="217.281,325.049 212.457,327.585 213.378,322.214 209.475,318.409 214.869,317.626 
				217.281,312.738 219.693,317.626 225.087,318.409 221.184,322.214 222.105,327.585 			"/>
			<polygon fill="#F2D422" points="240.367,325.049 235.543,327.585 236.464,322.214 232.561,318.409 237.955,317.626 
				240.367,312.738 242.779,317.626 248.172,318.409 244.269,322.214 245.191,327.585 			"/>
			<polygon fill="#F2D422" points="263.452,325.049 258.628,327.585 259.55,322.214 255.647,318.409 261.04,317.626 
				263.452,312.738 265.865,317.626 271.258,318.409 267.355,322.214 268.277,327.585 			"/>
			<polygon fill="#F2D422" points="286.538,325.049 281.714,327.585 282.635,322.214 278.733,318.409 284.126,317.626 
				286.538,312.738 288.95,317.626 294.344,318.409 290.441,322.214 291.362,327.585 			"/>
		</g>
		<rect x="185.051" y="300.202" fill="#91B6E0" width="107.954" height="1.135"/>
		<rect x="185.051" y="306.212" fill="#91B6E0" width="43.166" height="1.135"/>
		<g>
			<g>
				<g>
					<polygon fill="#F9F9F9" points="683.594,217.562 490.643,217.562 490.643,282.203 577.142,282.203 591.817,297.432 
						591.817,282.203 683.594,282.203 					"/>
				</g>
				<g>
					<polygon fill="none" stroke="#01004C" stroke-linecap="round" stroke-linejoin="round" stroke-miterlimit="10" points="
						683.594,217.562 490.643,217.562 490.643,282.203 577.142,282.203 591.817,297.432 591.817,282.203 683.594,282.203 					"/>
				</g>
			</g>
			<g>
				<circle fill="none" stroke="#91B6E0" stroke-miterlimit="10" cx="528.153" cy="244.882" r="16.844"/>
				<circle fill="#91B6E0" cx="528.153" cy="239.833" r="5.01"/>
				<path fill="#91B6E0" d="M528.153,246.607c-5.767,0-10.442,4.675-10.442,10.442c0,0.363,0.019,0.722,0.055,1.076
					c2.863,2.249,6.464,3.601,10.387,3.601c3.923,0,7.524-1.353,10.387-3.601c0.036-0.354,0.055-0.712,0.055-1.076
					C538.596,251.282,533.92,246.607,528.153,246.607z"/>
			</g>
			<rect x="548.84" y="235.361" fill="#91B6E0" width="107.954" height="1.135"/>
			<g>
				<polygon fill="#F2D422" points="557.984,266.113 553.16,268.649 554.081,263.278 550.178,259.473 555.572,258.69 
					557.984,253.802 560.396,258.69 565.789,259.473 561.887,263.278 562.808,268.649 				"/>
				<polygon fill="#F2D422" points="581.07,266.113 576.245,268.649 577.167,263.278 573.264,259.473 578.658,258.69 
					581.07,253.802 583.482,258.69 588.875,259.473 584.972,263.278 585.894,268.649 				"/>
				<polygon fill="#F2D422" points="604.155,266.113 599.331,268.649 600.253,263.278 596.35,259.473 601.743,258.69 
					604.155,253.802 606.568,258.69 611.961,259.473 608.058,263.278 608.979,268.649 				"/>
			</g>
			<rect x="548.84" y="241.266" fill="#91B6E0" width="107.954" height="1.135"/>
			<rect x="548.84" y="247.276" fill="#91B6E0" width="43.166" height="1.135"/>
		</g>
		<g>
			<g>
				<g>
					<polygon fill="#FFFFFF" points="1033.551,270.803 840.599,270.803 840.599,335.445 927.099,335.445 941.773,350.673 
						941.773,335.445 1033.551,335.445 					"/>
				</g>
				<g>
					<polygon fill="none" stroke="#01004C" stroke-linecap="round" stroke-linejoin="round" stroke-miterlimit="10" points="
						1033.551,270.803 840.599,270.803 840.599,335.445 927.099,335.445 941.773,350.673 941.773,335.445 1033.551,335.445 					"/>
				</g>
			</g>
			<g>
				<circle fill="none" stroke="#91B6E0" stroke-miterlimit="10" cx="878.11" cy="298.124" r="16.844"/>
				<circle fill="#91B6E0" cx="878.11" cy="293.075" r="5.01"/>
				<path fill="#91B6E0" d="M878.11,299.848c-5.767,0-10.442,4.675-10.442,10.442c0,0.363,0.019,0.722,0.055,1.076
					c2.863,2.249,6.464,3.601,10.387,3.601c3.923,0,7.524-1.353,10.387-3.601c0.036-0.354,0.055-0.712,0.055-1.076
					C888.552,304.524,883.877,299.848,878.11,299.848z"/>
			</g>
			<rect x="898.796" y="288.602" fill="#91B6E0" width="107.954" height="1.135"/>
			<g>
				<polygon fill="#F2D422" points="907.94,319.354 903.116,321.891 904.038,316.519 900.135,312.715 905.528,311.931 
					907.94,307.044 910.352,311.931 915.746,312.715 911.843,316.519 912.765,321.891 				"/>
				<polygon fill="#F2D422" points="931.026,319.354 926.202,321.891 927.123,316.519 923.221,312.715 928.614,311.931 
					931.026,307.044 933.438,311.931 938.832,312.715 934.929,316.519 935.85,321.891 				"/>
				<polygon fill="#F2D422" points="954.112,319.354 949.288,321.891 950.209,316.519 946.306,312.715 951.7,311.931 
					954.112,307.044 956.524,311.931 961.917,312.715 958.015,316.519 958.936,321.891 				"/>
				<polygon fill="#F2D422" points="977.198,319.354 972.374,321.891 973.295,316.519 969.392,312.715 974.786,311.931 
					977.198,307.044 979.61,311.931 985.003,312.715 981.1,316.519 982.022,321.891 				"/>
			</g>
			<rect x="898.796" y="294.507" fill="#91B6E0" width="107.954" height="1.135"/>
			<rect x="898.796" y="300.517" fill="#91B6E0" width="43.166" height="1.135"/>
		</g>
	</g>
	<g>
		<g>
			<g>
				<path fill="#E95F5C" d="M238.698,529.648h46.758c0,0,54.655,2.702,79.593,29.718c24.938,27.016,51.721,96.697,51.721,96.697
					l-10.916,6.521c0,0-33.635-57.707-84.757-84.515c-51.122-26.808-76.164-31.588-76.164-31.588L238.698,529.648z"/>
				<polygon fill="#01004C" points="405.854,662.584 411.224,673.592 440.6,656.27 416.77,656.062 				"/>
				<linearGradient id="SVGID_7_" gradientUnits="userSpaceOnUse" x1="341.8849" y1="591.1758" x2="286.6592" y2="525.3604">
					<stop  offset="0.2362" style="stop-color:#000000;stop-opacity:0"/>
					<stop  offset="1" style="stop-color:#000000"/>
				</linearGradient>
				<path opacity="0.5" fill="url(#SVGID_7_)" d="M341.862,591.195c10.946-12.989,12.689-31.875,12.86-40.681
					c-2.485-1.718-5.099-3.287-7.79-4.737l-86.309,1.431l0.943,4.206c12.594,4.395,32.386,12.419,59.531,26.654
					C328.395,581.896,335.323,586.366,341.862,591.195z"/>
			</g>
			<path fill="#292935" d="M222.748,468.654c-5.974-15.185-6.079-34.757,13.092-46.291c19.171-11.534,20.889-39.336,46.566-39.433
				c25.265-0.095,24.506,28.834,20.454,43.797c-4.052,14.963-1.247,31.796-1.247,45.823c0,14.027-18.547,34.913-44.576,25.873
				C231.009,489.384,226.489,478.162,222.748,468.654z"/>
			<g>
				<path fill="#E95F5C" d="M225.813,529.648c0,0-6.234,25.769,21.197,41.147c27.431,15.378,54.863,22.444,71.904,53.201
					c17.041,30.756,23.275,62.344,23.275,62.344l12.469-2.494c0,0-1.663-51.954-16.209-86.866
					c-14.547-34.913-73.566-67.332-73.566-67.332H225.813z"/>
				<polygon fill="#01004C" points="342.189,686.34 343.568,698.51 377.046,692.014 354.658,683.846 				"/>
			</g>
			<path fill="#FFADB7" d="M308.74,478.524L308.74,478.524l-14.451-3.48l-4.437,14.285l0,0c7.959,16.4,27.508,47.501,64.807,57.879
				l3.533-7.793C358.191,539.415,322.182,516.264,308.74,478.524z"/>
			<path fill="#BADB5D" d="M306.134,469.901c-9.248-37.718-44.784-44.992-67.436-33.354c-19.398,9.966-12.885,93.101-12.885,93.101
				s38.03,6.442,59.643,0c0,0-1.974-22.652,0-50.707c0,0,1.357,4.128,4.395,10.388l18.888-10.805
				C307.743,475.726,306.858,472.856,306.134,469.901z"/>
			<path fill="#FFADB7" d="M254.25,431.845c4.029,6.011,16.464,20.918,34.773,9.615C278.853,433.249,266.081,430.398,254.25,431.845
				z"/>
			<g>
				<path fill="#FFADB7" d="M266.751,431.925c0,0,3.325,3.739,11.171,2.985l2.027-9.118c0,0,11.014,4,16.313-6.39
					c5.299-10.391,0.052-18.781,0.052-18.781s-12.209-5.533-15.015-0.442c-2.805,5.091-3.013,7.106-4.468,6.442
					c-2.247-1.026,0.623-7.066-5.715-6.962c-6.338,0.104-6.65,12.053,0.312,13.508L266.751,431.925z"/>
				
					<path fill="none" stroke="#3D3234" stroke-width="0.5" stroke-linecap="round" stroke-linejoin="round" stroke-miterlimit="10" d="
					M290.518,409.575c0,0-0.089,3.287,2.039,5.66c0,0-1.131,0.756-3.811,0.413"/>
				<path fill="none" stroke="#3D3234" stroke-width="0.5" stroke-linecap="round" stroke-miterlimit="10" d="M293.308,408.855
					c0,0,2.178-0.699,4.236,0.618"/>
				<path fill="none" stroke="#3D3234" stroke-width="0.5" stroke-linecap="round" stroke-miterlimit="10" d="M282.094,407.224
					c0,0,2.729-1.217,5.216,0.75"/>
				
					<radialGradient id="SVGID_8_" cx="273.9546" cy="407.9531" r="5.4885" gradientTransform="matrix(0.9985 -0.0544 0.0544 0.9985 -15.1386 25.2243)" gradientUnits="userSpaceOnUse">
					<stop  offset="0" style="stop-color:#000000"/>
					<stop  offset="1" style="stop-color:#000000;stop-opacity:0"/>
				</radialGradient>
				<circle opacity="0.51" fill="url(#SVGID_8_)" cx="280.598" cy="417.662" r="5.488"/>
				<linearGradient id="SVGID_9_" gradientUnits="userSpaceOnUse" x1="274.6068" y1="427.6466" x2="279.0626" y2="424.5267">
					<stop  offset="0.2087" style="stop-color:#000000;stop-opacity:0"/>
					<stop  offset="1" style="stop-color:#000000"/>
				</linearGradient>
				<path opacity="0.75" fill="url(#SVGID_9_)" d="M278.808,430.925L278.808,430.925l1.141-5.132
					c-5.871-1.766-7.273-3.013-7.273-3.013S272.523,427.692,278.808,430.925z"/>
			</g>
			<linearGradient id="SVGID_10_" gradientUnits="userSpaceOnUse" x1="251.3746" y1="498.0679" x2="224.7628" y2="498.0679">
				<stop  offset="0.2362" style="stop-color:#000000;stop-opacity:0"/>
				<stop  offset="1" style="stop-color:#000000"/>
			</linearGradient>
			<path opacity="0.5" fill="url(#SVGID_10_)" d="M247.842,464.394c0,0-14.995,2.735-22.269,11.787
				c-1.398,18.219-0.672,37.739-0.146,47.369c9.991,10.286,25.948,7.967,25.948,7.967
				C238.074,515.308,247.842,464.394,247.842,464.394z"/>
			<g>
				<path fill="#FFADB7" d="M270.029,537.588c7.738-3.161,18.797,2.528,19.343,8.061h-19.086L270.029,537.588z"/>
				<path fill="#FFADB7" d="M270.029,537.588c0,0-38.397-11.889-38.749-39.323c-0.071-5.51,0.528-10.17,1.62-14.18l0,0
					l-6.411-12.158l-15.597-2.276l0,0c-2.258,6.545-3.511,13.567-3.782,20.927c-0.831,22.652,14.235,55.071,63.175,55.071
					L270.029,537.588z"/>
				<path fill="#BADB5D" d="M232.9,484.085c2.657-9.755,8.314-15.568,14.941-19.691l-9.144-27.847
					c-14.029,7.997-23.115,19.506-27.806,33.104L232.9,484.085z"/>
			</g>
		</g>
		<g>
			<path fill="#FFFFFF" d="M287.802,548.767h-47.901c-0.861,0-1.559-0.698-1.559-1.559l0,0c0-0.861,0.698-1.559,1.559-1.559h47.901
				V548.767z"/>
			<path fill="#A9B2BF" d="M361.546,548.767h-73.744v-3.117h75.229v1.632C363.031,548.102,362.366,548.767,361.546,548.767z"/>
			<path fill="#FFFFFF" d="M319.806,494.06h-16.999c-0.752,0-1.417,0.489-1.641,1.207l-15.729,50.383h34.369V494.06z"/>
			<path fill="#C1C7D3" d="M287.802,545.649h75.229l15.354-49.183c0.373-1.194-0.519-2.407-1.77-2.407h-72.707L287.802,545.649z"/>
		</g>
	</g>
</g>
<g>
	<g>
		<g>
			
				<line fill="none" stroke="#01004C" stroke-width="1.2" stroke-linecap="round" stroke-linejoin="round" stroke-miterlimit="10" x1="611.982" y1="534.998" x2="611.982" y2="710.344"/>
			
				<line fill="none" stroke="#01004C" stroke-width="1.2" stroke-linecap="round" stroke-linejoin="round" stroke-miterlimit="10" x1="652.244" y1="524.192" x2="652.244" y2="709.978"/>
			
				<line fill="none" stroke="#01004C" stroke-width="1.2" stroke-linecap="round" stroke-linejoin="round" stroke-miterlimit="10" x1="537.869" y1="534.998" x2="537.869" y2="710.344"/>
			
				<line fill="none" stroke="#01004C" stroke-width="1.2" stroke-linecap="round" stroke-linejoin="round" stroke-miterlimit="10" x1="537.869" y1="603.161" x2="652.244" y2="603.161"/>
		</g>
		<g>
			<path fill="#D64949" d="M597.757,538.409l-0.022-6.304c30.865-0.1,47.621-3.926,56.033-12.792
				c5.273-5.557,7.469-13.377,6.913-24.607c-1.488-30.132-1.858-68.65,8.581-99.32l5.968,2.032
				c-10.096,29.659-9.714,67.406-8.252,96.978c0.637,12.889-2.189,22.458-8.637,29.256
				C648.628,533.889,630.51,538.303,597.757,538.409z"/>
			<polygon fill="#FC7E7E" points="532.898,532.106 597.735,532.106 597.757,538.409 532.92,538.409 			"/>
			<path fill="#E95F5C" d="M604.426,395.386c-10.439,30.67-10.07,69.188-8.581,99.32c0.556,11.23-1.641,19.05-6.913,24.607
				c-8.412,8.866-25.169,12.692-56.033,12.792h64.837c30.865-0.1,47.621-3.926,56.033-12.792c5.273-5.557,7.469-13.377,6.913-24.607
				c-1.488-30.132-1.858-68.65,8.581-99.32H604.426z"/>
		</g>
	</g>
	<g>
		<g>
			<path fill="#FFADB7" d="M589.539,419.453l-11.704-1.225l0,0c-2.793,5.708-6.033,11.489-10.116,17.019
				c-19.95,27.016-34.421,46.586-34.407,72.519l12.275-6.07c0,0-1.662-10.599,5.611-16.833c6.869-5.888,24.947-22.628,41.471-52.477
				L589.539,419.453z"/>
			<linearGradient id="SVGID_11_" gradientUnits="userSpaceOnUse" x1="555.4832" y1="471.1408" x2="565.3463" y2="454.0573">
				<stop  offset="0.0945" style="stop-color:#000000;stop-opacity:0"/>
				<stop  offset="1" style="stop-color:#000000"/>
			</linearGradient>
			<path opacity="0.5" fill="url(#SVGID_11_)" d="M561.791,474.783c3.129-3.262,6.638-7.189,10.372-11.813
				c-4.121-3.657-11.765-9.337-14.809-13.526c-3.266,4.583-6.283,8.998-9.002,13.331
				C550.182,466.696,556.04,471.437,561.791,474.783z"/>
		</g>
		<g>
			<path fill="#704316" d="M595.461,487.097c-14.339,0.623-66.085,0.312-83.541,52.058c-17.456,51.746,5.768,96.223,5.768,96.223
				l12.269-1.93c0,0-12.426-48.782-0.581-73.408c11.845-24.626,30.86-33.12,59.539-31.328L595.461,487.097z"/>
			<polygon fill="#3D2F32" points="517.468,635.411 499.424,651.682 533.061,644.357 529.957,633.447 			"/>
			<linearGradient id="SVGID_12_" gradientUnits="userSpaceOnUse" x1="539.8321" y1="511.3805" x2="595.4611" y2="511.3805">
				<stop  offset="0.0945" style="stop-color:#000000;stop-opacity:0"/>
				<stop  offset="1" style="stop-color:#63300F"/>
			</linearGradient>
			<path opacity="0.5" fill="url(#SVGID_12_)" d="M539.832,501.663c1.515,9.251,5.184,24.121,10.809,34.001
				c10.222-5.898,22.848-7.916,38.273-6.952l6.546-41.615C586.148,487.502,561.061,487.529,539.832,501.663z"/>
		</g>
		<g>
			<polygon fill="#3D2F32" points="557.535,654.699 542.676,673.922 574.472,660.726 569.475,650.543 			"/>
			<path fill="#704316" d="M595.461,487.097c0,0-41.667,28.782-49.979,81.983c-8.313,53.2,12.053,85.62,12.053,85.62l11.94-4.156
				c0,0-8.943-49.036,4.149-81.455s36.488-40.532,53.945-41.156c17.456-0.623,24.106-19.119,21.613-39.069L595.461,487.097z"/>
		</g>
		<g>
			<path fill="#62A5E7" d="M651.883,490.734c0,0,2.078-59.643-3.741-82.502c-5.819-22.86-11.43-35.121-35.952-34.082
				c-19.503,0.827-23.503,21.897-34.356,44.078l14.834,14.159c0.972-1.756,1.91-3.521,2.793-5.297c0,0-4.519,41.297-12.82,60.722
				C582.641,487.813,624.451,494.89,651.883,490.734z"/>
			<linearGradient id="SVGID_13_" gradientUnits="userSpaceOnUse" x1="630.0433" y1="471.6933" x2="630.0433" y2="387.4197">
				<stop  offset="0.0945" style="stop-color:#000000;stop-opacity:0"/>
				<stop  offset="0.7756" style="stop-color:#000000"/>
			</linearGradient>
			<path opacity="0.5" fill="url(#SVGID_13_)" d="M648.142,408.232c-2.259-8.873-5.017-15.29-8.331-20.812l-15.997,7.967
				c14.977,20.534-5.455,63.158-15.968,71.511c0,0,19.807,11.759,44.396-1.551C652.21,446.268,651.461,421.271,648.142,408.232z"/>
		</g>
		<g>
			<path fill="#ABB0B7" d="M568.953,453.137h-11.378c-1.592,0-2.883-1.291-2.883-2.883v-23.137c0-1.592,1.291-2.883,2.883-2.883
				h11.378c1.592,0,2.883,1.291,2.883,2.883v23.137C571.837,451.846,570.546,453.137,568.953,453.137z"/>
			<path fill="#FFADB7" d="M560.019,460.393c-2.99-5.507-4.652-13.82,1.271-14.443c5.923-0.623,7.481,3.013,6.858,9.663
				L560.019,460.393z"/>
			<path fill="#FFADB7" d="M635.874,407.4l-9.964,7.765c0.594,14.306-2.547,37.848-22.227,45.227
				c-24.938,9.352-35.536-4.78-35.536-4.78l-8.128,4.78c0,0,7.297,14.859,34.833,16.417c27.773,1.572,43.745-13.092,49.564-37.614
				c2.327-9.808,3.286-18.216,3.007-25.706L635.874,407.4z"/>
			<path fill="#62A5E7" d="M638.772,384.193c-8.728-12.885-18.047,3.257-13.891,21.96c0.448,2.018,0.871,5.189,1.03,9.012
				l21.512-1.676C647.004,402.252,644.57,392.752,638.772,384.193z"/>
		</g>
		<g>
			<path fill="#703309" d="M621.826,365.643c0,0,10.374-1.273,13.476-12.345c3.102-11.072,3.008-21.83-5.553-23.402
				c0,0-1.441-6.313-7.643-4.675c0,0-1.034-4.461-6.163-4.076c0,0-2.134-7.326-11.474-5.794c-9.339,1.532-9.294,7.248-9.294,7.248
				s-13.181-1.856-11.679,11.853c0,0-5.508,6.517,1.023,10.092c0,0,0.011,10.505,12.12,9.496
				C608.747,353.031,621.826,365.643,621.826,365.643z"/>
			<g>
				<path fill="#FFADB7" d="M612.16,375.655c0,0,6.104,2.85,10.268,0.189c0,0,0.24-2.351-0.602-10.201c0,0-4.293-4.96-3.896-8.767
					c0.397-3.807,7.642-7.231,4.734-11.621c-2.908-4.39-6.913-3.409-9.316,1.28c-2.403,4.69-8.225,3.977-8.976-0.958
					c-0.75-4.935-7.678-5.029-11.844-2.032c0,0,1.417,9.395-0.519,13.864c0,0,1.857,0.534,3.09,0.43c0,0,0.361,8.546,6.531,11.587
					c4.382,2.159,9.748,0.067,9.748,0.067L612.16,375.655z"/>
				
					<linearGradient id="SVGID_14_" gradientUnits="userSpaceOnUse" x1="611.8077" y1="368.3471" x2="615.1945" y2="370.9932" gradientTransform="matrix(1 0.0069 -0.0069 1 3.0047 -4.2019)">
					<stop  offset="0" style="stop-color:#000000"/>
					<stop  offset="0.7913" style="stop-color:#000000;stop-opacity:0"/>
				</linearGradient>
				<path opacity="0.75" fill="url(#SVGID_14_)" d="M611.907,373.658c4.259-0.74,5.485-6.813,5.485-6.813s-2.365,1.664-6.013,2.648
					L611.907,373.658z"/>
				
					<radialGradient id="SVGID_15_" cx="599.4469" cy="368.9007" r="5.9184" gradientTransform="matrix(0.9989 -0.0475 0.0475 0.9989 -12.1905 21.1778)" gradientUnits="userSpaceOnUse">
					<stop  offset="0" style="stop-color:#000000"/>
					<stop  offset="1" style="stop-color:#000000;stop-opacity:0"/>
				</radialGradient>
				<circle opacity="0.51" fill="url(#SVGID_15_)" cx="604.12" cy="361.199" r="5.919"/>
				<path fill="none" stroke="#3D3234" stroke-width="0.5" stroke-linecap="round" stroke-miterlimit="10" d="M596.037,351.85
					c0,0,1.753-2.397,4.098-1.148"/>
			</g>
		</g>
	</g>
</g>
</svg>
