<?xml version="1.0" encoding="utf-8"?>
<!-- Generator: Adobe Illustrator 17.0.0, SVG Export Plug-In . SVG Version: 6.00 Build 0)  -->
<!DOCTYPE svg PUBLIC "-//W3C//DTD SVG 1.1//EN" "http://www.w3.org/Graphics/SVG/1.1/DTD/svg11.dtd">
<svg version="1.1" id="Capa_1" xmlns="http://www.w3.org/2000/svg" xmlns:xlink="http://www.w3.org/1999/xlink" x="0px" y="0px"
	 width="1190.55px" height="841.89px" viewBox="0 0 1190.55 841.89" enable-background="new 0 0 1190.55 841.89"
	 xml:space="preserve">
<g>
	<g>
		<path fill="#0E3944" d="M336.656,197.361c0,0-13.323-9.064-32.809-2.082c-19.486,6.982-23.863,33.225-19.062,54.521
			c4.8,21.296-22.028,94.008-22.028,94.008s13.943,19.61,62.677,12.104c0,0,36.338-66.036,33.64-113.445
			S336.656,197.361,336.656,197.361z"/>
		<path fill="#EF6E4B" d="M352.039,279.279c18.315-5.856,29.522,9.394,40.016,37.775c10.494,28.382,14.023,31.228,14.023,31.228
			l40.504,26.024l-3.367,15.168c0,0-38.549-15.094-47.868-24.694c-9.32-9.6-36.131-58.229-36.131-58.229L352.039,279.279z"/>
		<path fill="#FF8B66" d="M262.775,462.637c0,0-7.945,40.243-6.637,100.819c0,0-31.312,46.174-5.471,177.917h13.556
			c0,0,11.074-112.088,19.546-142.461c8.472-30.373,39.758-39.692,41.452-132.039L262.775,462.637z"/>
		<path fill="#FF8B66" d="M200.825,580.969c-7.877-25.958-28.121-69.433-80.054-128.364c0,0-3.098-1.595-7.285,0.963
			c-4.42,2.701-4.42,5.875-4.42,5.875s26.041,56.752,42.648,98.332c5.591,13.998,19.115,23.194,34.188,23.194H200.825z"/>
		<path fill="#164353" d="M295.375,631.162c0,0,0.178,19.368-12.53,19.698c-17.944,0.483-18.605-19.063-38.939-18.427
			c-20.333,0.635-62.271,5.719-75.615-26.052c-6.888-16.419,2.542-37.489-19.698-53.375c-22.24-15.885-11.438-33.677,0-43.208
			c11.437-9.506-4.931-19.927,6.99-24.781c2.846-1.144,5.642-1.017,8.235-0.152c1.525,0.534,2.948,1.271,4.321,2.186
			c6.303,4.194,10.726,11.488,10.726,11.488c33.677-92.237,93.635-104.412,93.635-104.412l59.297,20.46
			C333.22,558.09,295.375,631.162,295.375,631.162z"/>
		<path fill="#CFD8DC" d="M352.039,279.279c0,0-13.834,4.668-33.512,1.679c-19.678-2.988-26.074-15.342-39.907-7.39
			c-20.765,11.938-11.048,53.03-5.834,74.395c1.944,7.966,4.407,28.894-0.283,46.167c0,0,27.65,21.513,59.297,20.445l17.265-37.552
			C349.066,377.023,386.614,332.097,352.039,279.279z"/>
		<path fill="#EF6E4B" d="M316.903,244.812c0,0,2.302,19.439-4.89,37.122c0,0,10.267,15.157,20.064,5.183
			c0,0,0.896-17.815,11.902-37.969C351.35,235.65,316.903,244.812,316.903,244.812z"/>
		<g>
			<path fill="#FF8B66" d="M301.17,245.473c0,0-8.661-5.479-7.683,2.975c1.133,9.793,10.686,11.702,11.703,8.278
				C306.205,253.302,301.17,245.473,301.17,245.473z"/>
			<path fill="#FF8B66" d="M350.852,234.871c0,0,5.497-8.649,8.218-0.586c3.151,9.341-4.676,15.142-7.056,12.478
				C349.636,244.101,350.852,234.871,350.852,234.871z"/>
			<path fill="#FF8B66" d="M332.969,274.746c-15.708,3.517-26.87-4.758-33.76-35.53c-3.554-15.873,2.342-27.417,19.935-31.357
				c17.594-3.94,27.184,4.136,30.738,20.01C357.286,260.935,349.195,271.112,332.969,274.746z"/>
			
				<ellipse transform="matrix(0.9238 -0.3829 0.3829 0.9238 -66.2524 150.0076)" fill="#DB614D" cx="343.702" cy="241.434" rx="3.719" ry="2.974"/>
			
				<ellipse transform="matrix(0.988 -0.1546 0.1546 0.988 -34.6929 51.1076)" fill="#DB614D" cx="311.348" cy="248.678" rx="3.719" ry="2.974"/>
			<g>
				<path fill="#0E3944" d="M336.2,225.671c-0.153,0-0.308-0.044-0.445-0.135c-2.684-1.792-6.491-0.839-6.532-0.831
					c-0.438,0.115-0.869-0.149-0.98-0.579c-0.111-0.431,0.149-0.869,0.578-0.98c0.185-0.046,4.548-1.137,7.827,1.052
					c0.37,0.247,0.469,0.746,0.222,1.116C336.715,225.546,336.461,225.671,336.2,225.671z"/>
			</g>
			<g>
				<path fill="#0E3944" d="M306.625,232.293c-0.14,0-0.283-0.037-0.413-0.115c-0.381-0.228-0.504-0.722-0.274-1.103
					c2.03-3.377,6.445-4.253,6.632-4.289c0.428-0.068,0.855,0.202,0.939,0.639c0.083,0.436-0.202,0.856-0.638,0.941
					c-0.038,0.009-3.899,0.786-5.556,3.538C307.165,232.154,306.898,232.293,306.625,232.293z"/>
			</g>
			
				<ellipse transform="matrix(0.9758 -0.2185 0.2185 0.9758 -43.192 78.8448)" fill="#1A4850" cx="334.926" cy="234.729" rx="2.011" ry="3.619"/>
			
				<ellipse transform="matrix(0.9758 -0.2185 0.2185 0.9758 -44.7445 74.1883)" fill="#1A4850" cx="313.103" cy="239.426" rx="2.011" ry="3.619"/>
			<path fill="#1A4850" d="M322.121,257.46c0,0,10.089-0.822,14.535-4.575c0,0-1.224,7.881-6.713,8.428
				C324.454,261.859,322.121,257.46,322.121,257.46z"/>
			<path fill="#1A4850" d="M331.39,234.503c0,0,0.355-5.125,2.319-5.204c1.965-0.077,4.317,3.718,4.317,3.718l2.457-2.102
				l-2.706,0.989c0,0-2.414-3.967-4.281-3.558C330.837,228.93,331.39,234.503,331.39,234.503z"/>
			<path fill="#1A4850" d="M316.271,238.506c0,0-2.507-4.484-4.317-3.717c-1.81,0.767-2.319,5.203-2.319,5.203l-3.119-0.853
				l2.87-0.26c0,0,0.492-4.618,2.355-5.043C314.395,233.229,316.271,238.506,316.271,238.506z"/>
			<g>
				<path fill="#DB614D" d="M327.21,248.36l-0.809-1.534c1.308-0.69,1.418-1.62,1.282-2.276c-0.193-0.928-0.948-1.667-1.496-1.709
					c-0.314-0.016-0.584,0.251-0.794,0.811l-1.626-0.606c0.696-1.871,2.013-1.973,2.552-1.935c1.38,0.104,2.725,1.46,3.064,3.085
					C329.737,245.899,328.924,247.456,327.21,248.36z"/>
			</g>
			<path fill="#0E3944" d="M302.413,251.012c0,0-4.844-17.824-1.97-30.429c0,0,13.665-19.027,40.04-9.621
				c0,0,7.821,12.595,11.697,30.222c0,0,0.985-6.333-1.64-20.434c-2.624-14.101-15.135-22.863-32.291-20.042
				C301.094,203.531,282.734,220.599,302.413,251.012z"/>
		</g>
		<path fill="#0E3944" d="M330.067,207.008c0,0,1.046,4.652-3.479,16.632c0,0-3.255-3.402-7.067,0
			c-3.813,3.402-11.554,2.266-14.196,4.105c-2.642,1.839-2.642,6.043-2.642,6.043s-2.288-5.233,0-11.511
			c0,0-5.144,6.538-4.461,14.613c0,0-6.976-1.127-6.659-12.636c0.318-11.509,16.676-30.126,35.026-28.919
			c18.35,1.207,22.719,30.263,22.719,30.263s-1.674-1.316-4.293-0.73c0,0-0.405-6.154-4.53-13.904c0,0,1.901,5.594,0,11.631
			c0,0-5.112-2.681-9.142-1.842C331.342,220.751,333.83,215.883,330.067,207.008z"/>
		<path fill="#FF8B66" d="M273.962,277.24c8.931-7.041,15.884,1.915,17.589,14.301c1.705,12.386-14.445,85.459-26.899,82.765
			c-4.807-1.04-6.768-20.181-6.768-20.181s4.871-20.545,8.023-51.469C267.357,288.445,269.305,280.912,273.962,277.24z"/>
		<path fill="#FF8B66" d="M247.977,363.979c-12.023-11.46-33.581-49.474-39.058-68.839l9.126-3.671c0,0,27.476,39.306,40.001,49.218
			c12.525,9.912,16.93,20.95,11.336,30.402C263.788,380.542,250.507,366.39,247.977,363.979z"/>
		<g>
			<path fill="#FF8B66" d="M212.667,269.783c-0.63,12.431,9.502,15.377,5.007,24.919c-0.928,1.97-2.339,3.016-3.807,3.536
				c-2.783,0.985-5.877,0.054-7.953-2.044c-4.815-4.868-12.26-10.024-16.224-12.285c-4.506-2.6-1.954-3.308-1.954-3.308
				c-0.437-0.206-0.861-0.378-1.286-0.55c-3.215-1.346-5.785-1.854-3.454-3.285c2.622-1.63,11.923,1.767,11.923,1.767
				c-12.104-8.062-15.39-6.097-13.179-7.809c3.015-2.345,14.522,3.048,14.867,3.211c-6.395-6.047-11.032-7.417-8.495-8.329
				c2.571-0.924,15.224,8.239,19.841,11.678c1.041,0.771,1.678,1.268,1.678,1.268C209.474,268.391,212.667,269.783,212.667,269.783z
				"/>
			<path fill="#EF6E4B" d="M207.954,277.284c1.041,0.771,1.678,1.268,1.678,1.268s-2.166,3.644,0.639,8.365
				C210.272,286.917,205.122,283.536,207.954,277.284z"/>
			<path fill="#EF6E4B" d="M197.343,284.423c-1.071-0.589-7.178-4.027-9.606-3.823c-0.437-0.206-0.861-0.378-1.286-0.55
				C188.083,277.897,196.128,283.542,197.343,284.423z"/>
		</g>
		<g>
			<circle fill="#6097B2" cx="242.891" cy="468.88" r="2.443"/>
			<circle fill="#6097B2" cx="286.479" cy="485.696" r="2.443"/>
			<circle fill="#6097B2" cx="323.62" cy="494.713" r="2.443"/>
			<circle fill="#6097B2" cx="266.553" cy="436.978" r="2.444"/>
			<circle fill="#6097B2" cx="274.781" cy="460.194" r="2.444"/>
			<circle fill="#6097B2" cx="313.43" cy="473.427" r="2.444"/>
			<circle fill="#6097B2" cx="318.733" cy="433.379" r="2.444"/>
			<circle fill="#6097B2" cx="293.409" cy="425.045" r="2.444"/>
			<circle fill="#6097B2" cx="221.272" cy="516.542" r="2.443"/>
			<circle fill="#6097B2" cx="186.45" cy="506.153" r="2.443"/>
			<path fill="#6097B2" d="M168.139,487.05c-0.432,0.661-1.195,1.093-2.059,1.093c-1.347,0-2.44-1.093-2.44-2.44
				c0-0.305,0.051-0.584,0.178-0.839C165.343,485.398,166.766,486.135,168.139,487.05z"/>
			<circle fill="#6097B2" cx="233.747" cy="548.406" r="2.444"/>
			<circle fill="#6097B2" cx="171.253" cy="583.036" r="2.443"/>
			<circle fill="#6097B2" cx="196.784" cy="562.044" r="2.444"/>
			<circle fill="#6097B2" cx="158.76" cy="543.471" r="2.444"/>
			<circle fill="#6097B2" cx="189.453" cy="616.607" r="2.444"/>
			<circle fill="#6097B2" cx="212.715" cy="488.139" r="2.443"/>
			<circle fill="#6097B2" cx="236.191" cy="446.991" r="2.444"/>
			<circle fill="#6097B2" cx="262.757" cy="412.744" r="2.443"/>
			<circle fill="#6097B2" cx="208.919" cy="462.637" r="2.443"/>
			<circle fill="#6097B2" cx="238.634" cy="422.601" r="2.444"/>
			<circle fill="#6097B2" cx="191.897" cy="532.619" r="2.443"/>
			<circle fill="#6097B2" cx="161.204" cy="511.04" r="2.443"/>
			<circle fill="#6097B2" cx="250.222" cy="503.709" r="2.444"/>
			<circle fill="#6097B2" cx="300.74" cy="516.542" r="2.444"/>
			<circle fill="#6097B2" cx="298.296" cy="446.991" r="2.443"/>
			<circle fill="#6097B2" cx="327.665" cy="452.114" r="2.444"/>
			<circle fill="#6097B2" cx="268.996" cy="535.062" r="2.443"/>
			<circle fill="#6097B2" cx="247.778" cy="578.526" r="2.444"/>
			<circle fill="#6097B2" cx="210.272" cy="585.479" r="2.444"/>
			<circle fill="#6097B2" cx="313.43" cy="548.406" r="2.444"/>
			<circle fill="#6097B2" cx="279.668" cy="566.931" r="2.443"/>
			<circle fill="#6097B2" cx="228.86" cy="621.494" r="2.443"/>
			<circle fill="#6097B2" cx="266.553" cy="608.771" r="2.444"/>
			<circle fill="#6097B2" cx="302.863" cy="594.376" r="2.444"/>
			<circle fill="#6097B2" cx="286.479" cy="636.411" r="2.443"/>
		</g>
		<g>
			<path fill="#164353" d="M286.25,765.083h-40.133c-2.618-7.473,2.211-14.97,1.398-21.553c-1.398-11.132,5.083-4.982,5.083-4.982
				c1.144-11.971,17.97-14.233,17.792-8.896c-0.28,7.854,1.245,12.708,3.482,15.962c4.524,6.532,11.946,6.481,13.217,11.158
				c0.127,0.458,0.229,0.915,0.305,1.322C288.639,763.939,286.25,765.083,286.25,765.083z"/>
			<path fill="#205260" d="M287.394,758.094c-8.311,1.932-27.476-0.585-28.238-5.414c-0.737-4.677,9.582-6.863,14.716-7.066
				c4.524,6.532,11.946,6.481,13.217,11.158C287.216,757.229,287.318,757.687,287.394,758.094z"/>
		</g>
		<g>
			<path fill="#164353" d="M121.27,454.211c-4.27-3.889-11.209,2.542-11.209,2.542s3.736,5.541,1.322,7.778
				c-2.415,2.237-5.21-2.872-9.963-0.635c-0.381,0.178-0.788,0.407-1.169,0.661c-3.711,2.211-7.574,6.862-10.7,10.395
				c-0.635,0.712-1.245,1.373-1.805,1.957c-3.634,3.813-13.013,6.049-14.767-4.117c-1.754-10.167,9.684-22.087,22.24-33.042
				s20.664-4.448,20.664-4.448s2.847,4.6,2.847,7.473c0,2.847,2.542,4.27,3.965,6.99C124.117,452.458,121.27,454.211,121.27,454.211
				z"/>
			<path fill="#205260" d="M100.251,464.556c-3.711,2.211-7.574,6.862-10.7,10.395c-4.702,1.118-8.921,0.788-9.582-3.635
				c-1.601-10.675,19.698-24.247,17.995-16.75C97.099,458.329,98.573,461.913,100.251,464.556z"/>
		</g>
	</g>
	<g>
		<path fill="#CFD8DC" d="M843.419,747.728c-1.979-1.039-3.803-3.325-5.441-6.214c0-0.003-1.411-8.546,0-17.522
			c1.411-8.977-2.498-16.309-15.206-19.063c-12.354-2.677-19.686,3.276-16.832,28.114c0,0.003,0.001,0.006,0.001,0.009
			c-1.879,10.319-2.269,22.101,2.018,32.03h38.031C845.99,765.083,851.987,752.228,843.419,747.728z"/>
		<path fill="#FF8B66" d="M876.781,613.854c0,0,0,24.781-13.979,50.198c-14.235,25.882-31.833,61.403-31.833,61.403
			s-11.726,11.44-19.176-7.508c0,0,5.259-65.968,17.332-90.114C841.198,603.687,876.781,613.854,876.781,613.854z"/>
		<path fill="#FF8B66" d="M1059.146,533.156c0,0,22.651,95.256,37.06,120.383c0,0-3.316,10.513-18.917,13.69
			c0,0-49.278-72.438-52.455-102.938C1021.657,533.791,1059.146,533.156,1059.146,533.156z"/>
		<g>
			<path fill="#8B383E" d="M1070.101,555.548c-6.024,14.513-52.562,15.301-52.562,15.301l-3.558-5.236l-0.94-1.372l-7.269-10.726
				c0,0-77.114-75.64-92.136-69.286h-0.025c-0.432,0.203-0.864,0.432-1.271,0.737c-10.319,7.371-11.285,47.758-23.485,115.544
				c-1.169,6.431-3.761,13.928-5.719,19.113c-0.229,0.559-0.432,1.093-0.635,1.601c-1.118,2.872-1.906,4.702-1.906,4.702
				c-47.072,19.063-62.601-18.605-62.601-18.605s0.559-1.093,1.372-2.847c0.178-0.381,0.381-0.813,0.585-1.271
				c2.465-5.439,6.405-14.869,6.354-19.85c-0.051-5.465-0.102-10.726-0.127-15.784c0-0.457,0-0.89-0.026-1.322
				c-0.076-16.292-0.051-30.449,0.051-42.751v-1.296c0.051-5.363,0.127-10.37,0.229-15.047v-1.322
				c0.407-21.426,1.093-35.736,1.83-45.267c0.025-0.432,0.076-0.89,0.102-1.296c1.296-16.038,2.669-17.614,2.669-17.614l-9.43-65.55
				h102.887c0,0,15.453,15.479,35.507,35.914c0.432,0.407,0.839,0.813,1.245,1.246c7.269,7.396,15.123,15.428,23.002,23.587
				c0.33,0.33,0.635,0.635,0.915,0.94c3.101,3.203,6.202,6.405,9.277,9.582c0.381,0.381,0.737,0.788,1.119,1.169
				c10.319,10.7,20.333,21.248,28.899,30.475c0.305,0.305,0.585,0.61,0.864,0.915c11.717,12.683,20.638,22.824,23.714,27.552
				c8.159,12.48,14.513,28.721,18.02,38.76c0,0,0,0,0,0.026c0.178,0.457,0.33,0.864,0.483,1.296
				C1069.186,552.447,1070.101,555.548,1070.101,555.548z"/>
			<g>
				<path fill="#662C33" d="M846.434,451.466c-4.194,4.956-10.294,8.006-18.173,9.099c0.025-0.432,0.076-0.89,0.102-1.296
					c7.422-1.068,13.166-3.965,17.105-8.642c7.066-8.337,5.922-19.596,5.897-19.698l1.271-0.152
					C852.687,431.26,853.856,442.698,846.434,451.466z"/>
				<path fill="#662C33" d="M961.241,413.265c-0.407,0.025-0.788,0.051-1.195,0.051c-11.437,0-23.383-12.505-23.993-13.14
					l0.915-0.89c0.152,0.178,12.047,12.632,23.028,12.734C960.428,412.426,960.835,412.833,961.241,413.265z"/>
				<path fill="#662C33" d="M883.136,619.623c-0.229,0.559-0.432,1.093-0.635,1.601c-7.625,2.796-14.615,3.94-20.994,3.94
					c-20.333,0-34.414-11.768-42.141-20.689c0.178-0.381,0.381-0.813,0.585-1.271C829.837,614.794,850.958,631.9,883.136,619.623z"
					/>
				<path fill="#662C33" d="M910.764,460.616c1.703,7.295,2.796,15.25,2.847,23.612c-0.432,0.203-0.864,0.432-1.271,0.737
					c-0.051-38.379-22.265-68.32-22.519-68.65l1.017-0.763c0.203,0.254,13.369,18.046,19.596,43.742
					c2.593-1.703,4.346-4.143,5.083-7.294c3.202-13.471-11.361-35.482-11.488-35.71l1.042-0.712
					c0.61,0.94,14.996,22.697,11.691,36.702C915.898,455.94,913.865,458.71,910.764,460.616z"/>
				<path fill="#662C33" d="M1025.317,479.933c-3.787,4.117-7.346,7.625-7.676,7.93l-0.686,0.686l-0.331-0.915
					c-4.982-13.039-37.007-41.302-37.337-41.582l-0.381-0.356l5.338-8.845c0.33,0.33,0.635,0.635,0.915,0.94l-4.473,7.422
					c6.227,2.16,10.65,2.542,13.75,2.16c0.381,0.381,0.737,0.788,1.119,1.169c-1.042,0.178-2.16,0.28-3.33,0.28
					c-2.872,0-6.151-0.585-9.836-1.703c7.269,6.557,29.865,27.501,35.05,39.167c2.008-1.983,4.549-4.6,7.015-7.269
					C1024.757,479.323,1025.037,479.628,1025.317,479.933z"/>
				<path fill="#662C33" d="M849.586,567.341l-0.508,0.102c-0.483,0.127-6.252,1.322-12.886,1.322c-3.33,0-6.837-0.305-10.014-1.195
					c0-0.457,0-0.89-0.026-1.322c8.388,2.415,19.596,0.559,22.138,0.076l-2.135-52.892c-1.195,2.898-3.558,6.862-7.981,9.048
					c-2.109,1.068-4.473,1.576-7.066,1.576c-1.551,0-3.177-0.178-4.906-0.559v-1.296c4.397,1.016,8.21,0.737,11.387-0.864
					c5.388-2.669,7.523-8.387,8.184-10.649c-4.245,0.635-12.81-1.525-19.342-3.533v-1.322c7.04,2.135,16.572,4.601,20.003,3.406
					l0.813-0.28L849.586,567.341z"/>
				<path fill="#662C33" d="M1067.534,547.567c-7.396,7.294-22.545,18.453-45.852,18.453c-2.466,0-5.032-0.127-7.701-0.407
					l-0.94-1.372c28.34,3.253,46.106-10.04,54.01-17.97C1067.229,546.728,1067.381,547.135,1067.534,547.567z"/>
			</g>
		</g>
		<path fill="#CE364C" d="M943.5,97.418c0,0-2.828-6.51-14.773-6.513C919.522,90.903,916,95.989,916,95.989
			c-5.507,16.097-11.427,77.733-13.545,79.926c-1.074,1.112-69.355,47.099-69.355,47.099c37.054,0.694,60.173,46.368,60.173,46.368
			c1.197-15.008,43.045-74.485,43.494-79.787C937.615,179.591,955.317,134.908,943.5,97.418z"/>
		<path fill="#CE364C" d="M824.962,419.689c0,0-0.342,12.859,3.817,13.706s38.048,10.863,77.02-6.853
			c38.972-17.716,45.75-30.849,34.313-40.591C928.674,376.208,824.962,419.689,824.962,419.689z"/>
		<path fill="#F24052" d="M809.348,231.912c0,0-35.459-4.201-55.792,4.6c0,0-5.67,25.163,22.264,81.476
			c27.934,56.314,21.455,91.78,52.959,105.132c27.93,11.837,110.274-23.386,112.86-35.069c6.511-29.408-43.844-81.02-47.021-110.926
			C891.441,247.218,862.212,202.255,809.348,231.912z"/>
		<path fill="#CE364C" d="M753.555,236.512c-24.781,8.8-52.66,36.623-52.7,50.034c-0.04,13.411,23.252,18.581,23.252,18.581
			l38.187-18.581c0,0,10.923-7.627,3.97-29.855C759.31,234.464,753.555,236.512,753.555,236.512z"/>
		<g>
			<path fill="#CFD8DC" d="M855.378,261.309c-7.404,0-16.588-2.667-22.294-6.734c-3.145-2.241-5.021-4.769-5.426-7.311
				c-1.4-8.803,7.171-13.277,7.538-13.463l1.154,2.262c-0.298,0.154-7.287,3.839-6.18,10.801c0.293,1.854,1.812,3.804,4.388,5.641
				c6.389,4.555,17.439,7.227,24.635,5.958c3.242-0.572,5.364-1.739,6.305-3.465c1.152-2.112,0.169-4.504,0.159-4.527l2.336-1.004
				c0.062,0.143,1.482,3.507-0.246,6.715c-1.323,2.457-4.053,4.067-8.112,4.783C858.32,261.197,856.885,261.309,855.378,261.309z"/>
		</g>
		<g>
			<path fill="#CFD8DC" d="M823.953,288.127c-5.483,0-14.587-2.286-15.863-11.289c-0.65-4.582-0.231-8.402,0.137-11.771
				c0.543-4.963,0.973-8.883-1.919-13.582c-4.776-7.754-11.276-8.275-11.552-8.294l0.154-2.537
				c0.325,0.019,8.059,0.565,13.562,9.498c3.348,5.442,2.83,10.178,2.281,15.192c-0.37,3.378-0.752,6.872-0.146,11.137
				c1.377,9.712,13.758,9.104,14.282,9.077l0.152,2.537C824.697,288.116,824.332,288.127,823.953,288.127z"/>
		</g>
		<path fill="#CE364C" d="M831.667,242.51c0,0,18.745-12.767,14.297-26.587c-4.448-13.82-64.813-12.867-80.38,3.654
			c-15.568,16.521,33.677,27.487,33.677,27.487C803.073,239.381,827.431,238.534,831.667,242.51z"/>
		<path fill="#A02E44" d="M797.966,240.348c-8.894-3.02-14.167-9.439-12.261-16.853c1.906-7.413,40.144-7.61,47.395-1.687
			C840.351,227.732,830.137,251.27,797.966,240.348z"/>
		<path fill="#EF6E4B" d="M793.733,219.513c0,0,7.867,13.443,4.233,20.835c0,0,26.996,9.32,26.996-5.785
			c0,0-5.088-11.321-3.17-18.64L793.733,219.513z"/>
		<g>
			<path fill="#FFB878" d="M784.73,207.772c0,0-13.264-21.243-12.034-41.534c0.615-10.145,5.833-14.121,5.833-14.121
				s-4.213-5.855,0.302-14.805c0,0,6.247,7.229,28.174,4.948c21.143-2.199,23.251,12.874,23.251,12.874
				c15.113,2.246,4.918,47.964-5.629,52.636H784.73z"/>
			<path fill="#FF8B66" d="M779.103,188.157c0,0-7.623-7.608-8.562,1.286c-1.087,10.304,8.271,14.454,10.1,11.176
				C782.47,197.342,779.103,188.157,779.103,188.157z"/>
			<path fill="#FF8B66" d="M832.487,188.693c0,0,7.623-7.608,8.562,1.286c1.087,10.304-8.272,14.454-10.1,11.177
				C829.121,197.879,832.487,188.693,832.487,188.693z"/>
			<path fill="#FF8B66" d="M804.992,225.478c-16.915,0-26.463-11.049-26.463-44.188c0-17.093,8.698-27.578,27.644-27.578
				c18.947,0,26.927,10.484,26.927,27.578C833.1,216.899,822.467,225.478,804.992,225.478z"/>
			
				<ellipse transform="matrix(0.9851 -0.1719 0.1719 0.9851 -21.0492 144.4484)" fill="#DB614D" cx="823.648" cy="193.781" rx="3.908" ry="3.125"/>
			
				<ellipse transform="matrix(0.9979 0.0651 -0.0651 0.9979 14.2832 -50.9236)" fill="#DB614D" cx="788.806" cy="193.781" rx="3.908" ry="3.125"/>
			<g>
				<path fill="#FFB878" d="M820.049,175.342c-0.221,0.034-0.453-0.019-0.643-0.166c-2.693-2.069-6.733-1.337-6.795-1.327
					c-0.45,0.074-0.899-0.216-0.985-0.675c-0.089-0.459,0.215-0.9,0.674-0.987c0.177-0.039,4.85-0.876,8.134,1.65
					c0.37,0.285,0.44,0.815,0.157,1.186C820.454,175.201,820.256,175.31,820.049,175.342z"/>
			</g>
			<g>
				<path fill="#FFB878" d="M787.674,175.459c-0.208-0.026-0.406-0.128-0.549-0.302c-0.296-0.362-0.243-0.894,0.116-1.19
					c3.206-2.626,7.897-1.93,8.08-1.898c0.461,0.073,0.776,0.503,0.704,0.964c-0.071,0.462-0.522,0.769-0.964,0.706
					c-0.03-0.011-4.147-0.598-6.746,1.536C788.126,175.427,787.896,175.487,787.674,175.459z"/>
			</g>
			<ellipse fill="#1A4850" cx="816.187" cy="184.89" rx="2.113" ry="3.804"/>
			<ellipse fill="#1A4850" cx="793.597" cy="184.89" rx="2.113" ry="3.804"/>
			<path fill="#FFB878" d="M783.718,157.382c0,0,18.027,6.601,43.871,4.745c0,0,5.51,6.868,4.842,31.104
				c0,0,15.134-43.656-29.045-43.656s-24.276,42.687-24.276,42.687S775.501,165.562,783.718,157.382z"/>
			<g>
				<path fill="#DB614D" d="M806.062,196.186l-1.266-1.276l3.346-3.325c-3.244-4.587-3.227-15.203-3.224-15.676l1.797,0.01
					c0,0.114-0.017,11.535,3.294,15.125l0.588,0.637L806.062,196.186z"/>
			</g>
			<path fill="#1A4850" d="M794.835,201.718c0,0,16.649,0.703,25.054-1.521c0,0,1.486,12.107-11.417,12.708
				C794.835,213.541,794.835,201.718,794.835,201.718z"/>
		</g>
		<path fill="#CFD8DC" d="M865.979,247.49c3.177-0.59,2.859,7.724,0,5.314C863.12,250.395,862.802,248.08,865.979,247.49z"/>
		<path fill="#CFD8DC" d="M827.666,287.779c-0.484,3.195-8.234,0.17-5.021-1.742C825.858,284.125,828.15,284.584,827.666,287.779z"
			/>
		<path fill="#EF6E4B" d="M793.563,305.127c0,0-5.046,12.937-4.757,20.246c0.288,7.308,2.678,6.355,2.678,6.355
			s-3.826,1.506-4.551,5.719c-0.724,4.213,9.912,7.307,10.643,7.307c0.731,0,8.238-2.86,8.238-2.86l1.573-23.907l-6.645-4.173
			L793.563,305.127z"/>
		<path fill="#FF8B66" d="M797.577,303.452c0,0,9.184,5.719,12.741,9.214c3.557,3.495,1.526,30.5,0,31.771
			c-1.526,1.271-13.237,3.891-15.483,2.422c-2.246-1.469,0.875-9.412,0.875-9.412s5.88-1.271,5.033,0.953
			c-0.847,2.224,0,4.13,0,4.13l2.415-0.953c0,0-1.185-6.036,0-10.484c1.185-4.448-8.28-9.139-9.425-17.278
			C792.589,305.676,797.577,303.452,797.577,303.452z"/>
		<path fill="#CE364C" d="M702.38,290.296c-2.941-12.699,9.663-17.192,27.196-15.026c20.333,2.511,62.091,7.83,71.167,29.858
			c0,0,2.965,8.688-4.707,12.861C774.587,329.653,707.903,314.147,702.38,290.296z"/>
		<path fill="#A02E44" d="M765.988,281.881c0,0-24.232-10.067-36.305-11.086C717.61,269.775,746.377,280.325,765.988,281.881z"/>
		<g>
			<path fill="#FF8B66" d="M947.643,63.709c-1.83,2.084-4.855,10.192-4.855,10.192c-1.271,6.811-2.008,10.573-4.397,13.699
				c-2.364,3.126-1.118,8.642-1.118,8.642s-9.252,4.753-17.029-1.118c0,0,0.813-5.464,0-7.015
				c-1.601-3.101-6.735-4.753-8.489-11.005c-1.754-6.278-7.015-13.268-7.015-13.268s1.5-3.253,4.245-1.271
				c2.771,2.008,4.524,7.015,6.024,7.523c0.305,0.102,0.61,0.178,0.915,0.203c0,0,0.025,0,0.076,0.025
				c1.144,0.152,2.313-0.102,3.025-0.788c0.051-0.025,0.127-0.076,0.178-0.152c2.516-2.923,3.101-11.514,2.999-15.352
				c-0.152-5.337,0.051-12.708,3.304-11.463c3.253,1.245,0.28,4.219,2.796,15.987l1.22,0.152c0.229,0.839,2.465-7.142,2.999-14.64
				c0.381-5.16,3.762-3.254,4.499-1.627c0.763,1.627-0.381,6.761-0.61,10.497c-0.178,2.466-0.381,5.032-0.508,6.558l1.423,0.788
				c5.134-8.947,3.381-12.658,6.38-12.835c2.974-0.178,1.906,7.371,0.305,10.243c-0.686,1.245-1.347,3.838-1.881,6.38
				c5.261-6.075,4.677-9.252,7.091-8.87C951.71,55.602,949.473,61.625,947.643,63.709z"/>
			<path fill="#EF6E4B" d="M924.921,77.714c-1.779-4.905-8.133-7.142-8.921-7.396c1.144,0.152,2.313-0.102,3.025-0.788
				C925.251,72.326,924.921,77.714,924.921,77.714z"/>
		</g>
		<g>
			<path fill="#CFD8DC" d="M814.511,727.802c0,0-3.517-7.177-0.382-10.26c3.135-3.084,6.826,2.635,12.182,1.364
				c5.356-1.271,6.598-5.077,7.989,0.109C835.691,724.201,833.997,740.51,814.511,727.802z"/>
			<path fill="#ADBEC4" d="M834.671,727.484c0,0-14.386,5.096-21.843,0l1.894,6.227c0,0,15.635,1.656,17.792-2.286L834.671,727.484z
				"/>
			<path fill="#ADBEC4" d="M834.476,735.221c0,0-13.17-1.828-19.525,1.442v3.088c0,0,17.172-4.008,22.723,0L834.476,735.221z"/>
			<path fill="#ADBEC4" d="M814.32,746.163c0,0,2.554-6.224,10.567-6.672c8.013-0.448,13.42,3.965,13.42,3.965
				S825.598,738.221,814.32,746.163z"/>
		</g>
		<g>
			<path fill="#CFD8DC" d="M1153.34,659.68c-25.29,33.753-59.704,40.235-59.704,40.235c-9.989-7.981-10.243-17.436-10.243-17.436
				s-9.633-8.591-10.904-12.708c-1.271-4.117,8.26-16.521,13.979-15.25c3.94,0.864,6.227,4.016,7.269,5.871
				c-4.727-10.65-0.94-14.361,5.77-13.445c6.99,0.94,0.381,2.593,5.388,8.21c0.356,0.407,0.762,0.737,1.195,1.042
				c0.915,0.635,2.008,1.068,3.253,1.296c1.093,0.203,2.313,0.254,3.584,0.178c0.661-0.025,1.347-0.102,2.033-0.204
				c1.296-0.203,2.618-0.534,3.99-0.966c2.11-0.661,4.295-1.601,6.43-2.77c8.743-4.778,12.429-6.405,19.088-4.702
				c6.634,1.678,6.532,6.71,6.532,6.71L1153.34,659.68z"/>
			<path fill="#ADBEC4" d="M1153.34,659.68c-25.29,33.753-59.704,40.235-59.704,40.235c17.563-7.549,33.703-17.436,44.733-29.611
				C1149.375,658.13,1153.34,659.68,1153.34,659.68z"/>
			<g>
				<path fill="#ADBEC4" d="M1106.091,656.198c0.915,0.635,2.008,1.068,3.253,1.296c-6.685,1.347-7.167,7.32-7.167,7.32
					l-2.847-0.915C1099.94,656.732,1105.608,656.223,1106.091,656.198z"/>
				<path fill="#ADBEC4" d="M1110.589,665.526l-2.974,0.102c-1.119-4.219,0.33-6.735,1.728-8.133
					c1.093,0.203,2.313,0.254,3.584,0.178C1109.395,661.154,1110.589,665.526,1110.589,665.526z"/>
				<path fill="#ADBEC4" d="M1117.935,663.899l-2.948,0.381c-1.144-2.999-0.813-5.236-0.025-6.812
					c1.296-0.203,2.618-0.534,3.99-0.966C1116.512,660.137,1117.935,663.899,1117.935,663.899z"/>
			</g>
		</g>
		<path fill="#CE364C" d="M834.933,350.474c0,0,6.526,35.222-6.672,49.259c-13.198,14.036-4.467,2.502-0.531-15.595
			C831.667,366.041,828.668,346.98,834.933,350.474z"/>
		<path fill="#CE364C" d="M895.844,334.754c0,0,20.805,6.836,31.689,26.051C927.533,360.805,913,329.52,895.844,334.754z"/>
	</g>
	<g>
		<g>
			<path fill="#FF8B66" d="M355.467,73.064c2.773,0.043,10.813,3.244,10.813,3.244c5.902,3.631,9.184,5.61,13.105,5.939
				c3.904,0.347,5.505,7.054,5.505,7.054s15.395,3.368,16.265-6.339c0,0-8.606-12.18-9.209-13.824
				c-1.223-3.268,0.999-8.183-2.457-13.68c-3.476-5.515-5.124-14.106-5.124-14.106s-3.418-1.073-3.791,2.293
				c-0.372,3.401,2.162,8.063,1.532,9.515c-0.129,0.294-0.278,0.572-0.464,0.815c0,0-0.017,0.019-0.032,0.073
				c-0.655,0.95-1.628,1.646-2.614,1.713c-0.053,0.021-0.142,0.043-0.233,0.03c-3.855-0.097-10.615-5.432-13.391-8.084
				c-3.854-3.696-9.453-8.494-10.714-5.247c-1.261,3.247,2.939,3.04,9.972,12.805l-0.706,1.007
				c0.468,0.733-6.948-2.968-12.864-7.606c-4.08-3.181-4.937,0.604-4.226,2.242c0.694,1.657,5.267,4.256,8.189,6.595
				c1.947,1.523,3.986,3.096,5.201,4.026l-0.372,1.584c-10.078-2.201-11.651-5.992-13.796-3.889
				c-2.128,2.084,4.183,6.361,7.387,7.103c1.384,0.327,3.749,1.578,5.991,2.889c-8.034-0.179-9.996-2.745-11.335-0.7
				C346.727,70.635,352.694,73.021,355.467,73.064z"/>
			<path fill="#EF6E4B" d="M381.101,65.626c-2.441-4.612,0.167-10.823,0.508-11.577c-0.655,0.95-1.628,1.646-2.614,1.713
				C376.886,62.253,381.101,65.626,381.101,65.626z"/>
		</g>
		<g>
			<path fill="#FF8B66" d="M808.41,73.064c-2.773,0.043-10.813,3.244-10.813,3.244c-5.901,3.631-9.184,5.61-13.105,5.939
				c-3.904,0.347-5.505,7.054-5.505,7.054s-15.395,3.368-16.265-6.339c0,0,8.607-12.18,9.209-13.824
				c1.223-3.268-0.999-8.183,2.457-13.68c3.476-5.515,5.124-14.106,5.124-14.106s3.418-1.073,3.791,2.293
				c0.372,3.401-2.162,8.063-1.532,9.515c0.129,0.294,0.278,0.572,0.464,0.815c0,0,0.017,0.019,0.033,0.073
				c0.655,0.95,1.628,1.646,2.614,1.713c0.053,0.021,0.142,0.043,0.233,0.03c3.856-0.097,10.615-5.432,13.391-8.084
				c3.853-3.696,9.453-8.494,10.714-5.247c1.261,3.247-2.939,3.04-9.972,12.805l0.706,1.007c-0.468,0.733,6.948-2.968,12.864-7.606
				c4.08-3.181,4.937,0.604,4.226,2.242c-0.694,1.657-5.267,4.256-8.189,6.595c-1.947,1.523-3.986,3.096-5.201,4.026l0.372,1.584
				c10.078-2.201,11.651-5.992,13.796-3.889c2.128,2.084-4.183,6.361-7.387,7.103c-1.384,0.327-3.749,1.578-5.991,2.889
				c8.034-0.179,9.996-2.745,11.335-0.7C817.15,70.635,811.184,73.021,808.41,73.064z"/>
			<path fill="#EF6E4B" d="M782.776,65.626c2.441-4.612-0.167-10.823-0.508-11.577c0.655,0.95,1.628,1.646,2.614,1.713
				C786.991,62.253,782.776,65.626,782.776,65.626z"/>
		</g>
		<path fill="#0E3944" d="M673.119,539.722l-29.575-183.121l-59.22,6.613l-59.22-6.613l-29.575,183.121l-14.205,177.603
			c0,0,4.516,14.716,34.058,4.55c0,0,21.917-164.731,25.306-168.359c3.389-3.628,38.191-111.225,38.191-111.225h10.887
			c0,0,34.802,107.597,38.191,111.225c3.389,3.628,25.306,168.359,25.306,168.359c29.542,10.167,34.058-4.55,34.058-4.55
			L673.119,539.722z"/>
		<path fill="#0C476B" d="M565.669,179.269c3.74,3.64,22.144,10.207,31.863,0l6.589,6.472c0,0-7.513,17.669-20.698,18.286
			c-13.185,0.617-22.716-15.72-22.716-15.72L565.669,179.269z"/>
		<path fill="#0C476B" d="M617.789,177.275c22.026-9.484,93.193-34.692,93.193-34.692s47.84-59.938,57.597-68.834
			c0,0,10.591,1.906,13.689,15.091c0,0-30.806,65.963-47.551,84.847c-16.746,18.885-101.557,59.727-101.557,59.727L617.789,177.275z
			"/>
		<path fill="#FFB878" d="M540.691,175.915c6.553-4.144,39.452,17.867,39.452,17.867s42.773-22.713,52.811-18.315
			c0,0,9.047,12.105,12.681,43.225c3.635,31.12,3.875,159.186,3.875,159.186s-28.757,10.173-67.655,10.173
			c-44.342,0-68.199-12.716-68.199-12.716S505.743,198.018,540.691,175.915z"/>
		<path fill="#EF6E4B" d="M567.407,172.588c0,0,4.737,14.9,0,20.642c0,0,4.919,10.323,13.762,10.779
			c10.217,0.528,13.762-10.779,13.762-10.779s-5.404-14.392,0-19.45L567.407,172.588z"/>
		<g>
			<path fill="#8B383E" d="M555.597,157.921c0,0-9.97-19.189-7.995-39.695c1.973-20.506,32.871-25.208,53.693-15.133
				c0,0-6.181-6.045-3.762-7.724c2.419-1.679,6.589,9.067,6.589,9.067s6.577-2.015,7.585,0c1.007,2.016-6.738,3.118-6.738,3.118
				s13.436,7.451,0.883,47.108L555.597,157.921z"/>
			<path fill="#FF8B66" d="M554.097,145.769c0,0-7.434-7.418-8.349,1.254c-1.061,10.047,8.065,14.094,9.848,10.898
				C557.38,154.725,554.097,145.769,554.097,145.769z"/>
			<path fill="#FF8B66" d="M606.151,146.292c0,0,7.434-7.419,8.348,1.253c1.06,10.047-8.065,14.094-9.848,10.899
				C602.868,155.248,606.151,146.292,606.151,146.292z"/>
			<path fill="#FF8B66" d="M579.341,182.16c-16.494,0-25.803-10.773-25.803-43.087c0-16.667,8.481-26.891,26.955-26.891
				c18.475,0,26.256,10.223,26.256,26.891C606.749,173.795,596.38,182.16,579.341,182.16z"/>
			
				<ellipse transform="matrix(0.9851 -0.1718 0.1718 0.9851 -17.1024 104.9223)" fill="#DB614D" cx="597.532" cy="151.253" rx="3.81" ry="3.047"/>
			
				<ellipse transform="matrix(0.9979 0.065 -0.065 0.9979 11.0288 -36.3278)" fill="#DB614D" cx="563.557" cy="151.253" rx="3.811" ry="3.048"/>
			<g>
				<path fill="#8B383E" d="M593.742,133.831c-0.218,0-0.434-0.084-0.596-0.255c-2.286-2.397-6.288-2.294-6.349-2.294
					c-0.446,0.003-0.835-0.342-0.849-0.799c-0.017-0.455,0.342-0.835,0.797-0.85c0.175-0.011,4.804-0.12,7.592,2.805
					c0.314,0.33,0.303,0.851-0.026,1.165C594.153,133.757,593.946,133.831,593.742,133.831z"/>
			</g>
			<g>
				<path fill="#8B383E" d="M562.686,133.831c-0.204,0-0.408-0.074-0.568-0.227c-0.331-0.315-0.342-0.836-0.03-1.165
					c2.787-2.925,7.411-2.813,7.592-2.805c0.455,0.015,0.811,0.395,0.797,0.849c-0.014,0.456-0.413,0.806-0.849,0.8
					c-0.031-0.007-4.085-0.083-6.344,2.294C563.119,133.747,562.904,133.831,562.686,133.831z"/>
			</g>
			<ellipse fill="#1A4850" cx="590.257" cy="142.583" rx="2.06" ry="3.709"/>
			<ellipse fill="#1A4850" cx="568.23" cy="142.583" rx="2.061" ry="3.709"/>
			<path fill="#1A4850" d="M570.29,164.498c0,0,14.545,1.872,22.027-1.719c0,0-4.23,9.903-12.174,9.015
				C572.199,170.907,570.29,164.498,570.29,164.498z"/>
			<path fill="#8B383E" d="M605.031,149.953c0,0-0.515-17.938-7.499-31.727c0,0-12.312,5.69-15.022,4.346
				c-2.71-1.344,2.583-4.346,2.583-4.346s-20.315,6.697-21.535,5.354c-1.221-1.344,6.733-5.354,6.733-5.354l-12.655,4.346
				c0,0-3.901,16.14-2.287,27.381c0,0-5.438-9.383-6.11-15.863c-0.672-6.48,2.176-24.952,21.238-26.294
				c19.063-1.344,29.767,2.982,34.49,11.734C609.69,128.282,609.104,139.048,605.031,149.953z"/>
			<g>
				<path fill="#DB614D" d="M582.215,159.316c-1.602,0.001-3.23-0.415-3.723-0.551l0.468-1.688c1.731,0.478,4.445,0.763,5.037,0.065
					c0.205-0.243,0.123-0.807-0.226-1.545c-2.384-5.07-2.88-17.906-2.9-18.449l1.752-0.065c0.004,0.13,0.501,13.021,2.734,17.767
					c0.681,1.447,0.674,2.599-0.021,3.422C584.661,159.072,583.446,159.316,582.215,159.316z"/>
			</g>
		</g>
		<path fill="#105E99" d="M600.465,183.99c0,0,29.853,92.669,32.695,168.072c0,0,10.775,2.965,22.906-13.555
			c12.131-16.521,4.915-147.38-18.326-169.17C637.741,169.336,627.195,166.934,600.465,183.99z"/>
		<path fill="#0C476B" d="M605.331,200.197c0,0,5.343-12.415,2.969-20.928c-2.374-8.513-10.769,0-10.769,0
			S600.923,193.208,605.331,200.197z"/>
		<path fill="#0C476B" d="M545.412,177.275c-22.026-9.484-93.193-34.692-93.193-34.692S404.257,80.897,394.5,72.002
			c0,0-12.073,6.831-12.892,20.969c0,0,30.13,61.832,46.875,80.717s101.557,59.727,101.557,59.727L545.412,177.275z"/>
		<path fill="#105E99" d="M562.736,183.99c0,0-29.853,92.669-32.695,168.072c0,0-10.775,2.965-22.906-13.555
			c-12.131-16.521-4.915-147.38,18.326-169.17C525.46,169.336,536.006,166.934,562.736,183.99z"/>
		<path fill="#0C476B" d="M557.87,200.197c0,0-5.343-12.415-2.969-20.928c2.374-8.513,10.769,0,10.769,0
			S562.278,193.208,557.87,200.197z"/>
		<g>
			<path fill="#662C33" d="M713.657,765.083h-59.272c-4.143-23.561,2.466-47.148,2.466-47.148l27.094-4.651
				c2.465,14.894,5.439,20.766,9.557,23.79c0.025,0,0.025,0,0.025,0c2.999,2.186,6.583,2.898,11.056,4.448
				c5.109,1.779,7.803,5.007,9.15,8.514C716.402,757.001,713.657,765.083,713.657,765.083z"/>
			<path fill="#8B383E" d="M713.733,750.036c-14.615,1.83-46.716,4.956-44.759-3.507c1.627-7.066,15.174-8.972,24.527-9.455
				c0.025,0,0.025,0,0.025,0c2.999,2.186,6.583,2.898,11.056,4.448C709.692,743.301,712.386,746.529,713.733,750.036z"/>
		</g>
		<g>
			<path fill="#662C33" d="M515.153,765.083h-59.272c0,0-1.881-5.541-1.017-11.412c0.712-4.778,3.253-9.786,10.09-12.149
				c5.134-1.779,9.074-2.44,12.302-5.465c3.508-3.304,6.125-9.404,8.337-22.773l27.094,4.651
				C512.688,717.935,519.271,741.522,515.153,765.083z"/>
			<path fill="#8B383E" d="M454.865,753.671c0.712-4.778,3.253-9.786,10.09-12.149c5.134-1.779,9.074-2.44,12.302-5.465
				c7.498,2.313,17.995,6.558,21.248,12.988C503.029,757.865,468.386,756.467,454.865,753.671z"/>
		</g>
	</g>
	<g>
		<g>
			<path fill="#164353" d="M940.679,760.838c0,2.491-0.254,4.245-0.254,4.245h-72.005c0-1.423,0.025-2.847,0.102-4.245
				c0.813-18.834,6.761-35.177,6.761-35.177l17.995-7.727c1.55,9.277,5.541,15.199,10.548,19.062
				c1.321,1.042,2.694,1.906,4.117,2.643c0.661,0.356,1.322,0.686,2.008,0.991c1.5,0.686,3.05,1.246,4.601,1.703
				c6.354,1.932,12.785,2.338,17.283,3.025C939.51,746.554,940.679,755.425,940.679,760.838z"/>
			<path fill="#225866" d="M940.679,760.838c0,2.491-0.254,4.245-0.254,4.245h-72.005c0-1.423,0.025-2.847,0.102-4.245H940.679z"/>
			<path fill="#225866" d="M907.943,739.641l-9.989,3.203l-2.11-3.66l7.981-2.186C905.146,738.04,906.519,738.904,907.943,739.641z"
				/>
			<path fill="#225866" d="M914.551,742.335l-6.735,4.473l-4.143-1.627l6.278-4.55C911.45,741.318,913,741.878,914.551,742.335z"/>
		</g>
		<g>
			<path fill="#164353" d="M665.569,760.838c-0.178,2.44-0.813,4.245-0.813,4.245h-47.961c-0.61-1.398-1.042-2.796-1.347-4.245
				c-4.727-22.951,27.145-51.037,27.145-51.037l10.116,13.496c0,0-1.169,21.604,7.396,26.103
				C665.239,752.095,665.899,757.178,665.569,760.838z"/>
			<path fill="#225866" d="M615.447,760.838h50.122c-0.178,2.44-0.813,4.245-0.813,4.245h-47.961
				C616.184,763.685,615.752,762.287,615.447,760.838z"/>
			<path fill="#225866" d="M657.912,747.681c0,0-20.207-4.607-29.42,1.358v-3.336C628.492,745.703,645.49,737.443,657.912,747.681z"
				/>
			<path fill="#225866" d="M653.909,742.554c0,0-12.902-5.898-25.417,0l1.43-3.364C629.922,739.19,644.869,733.538,653.909,742.554z
				"/>
		</g>
		<path fill="#8BBDDB" d="M918.948,556.793c0.025,19.291-17.106,176.57-17.106,176.57c-17.131,1.703-30.856-1.728-30.856-1.728
			c-4.702-79.707-5.16-148.255-5.16-148.255l-82.096-61.534l-0.204-0.152c0,0-0.305,1.398-0.864,3.889
			c-4.067,18.046-21.274,93.635-28.441,110.944c-8.159,19.723-97.366,102.665-97.366,102.665
			c-16.572-2.288-30.633-14.29-30.633-14.29c32.025-53.121,75.691-106.395,75.691-106.395c3.406-19.139,5.846-61.712,7.295-93.533
			c0.025-0.483,0.051-0.991,0.076-1.474c0.966-21.553,1.449-37.82,1.449-37.82l-15.047-30.856l95.592-35.126l21.426,27.425
			c0,0,4.905,4.55,12.632,11.819c0.356,0.33,0.711,0.661,1.067,0.991C855.101,486.999,918.948,548.151,918.948,556.793z"/>
		<g>
			<path fill="#6097B2" d="M709.209,524.971c0.025-0.483,0.051-0.991,0.076-1.474c20.13-10.929,16.75-28.365,16.699-28.543
				l1.245-0.254C727.281,494.878,730.89,513.61,709.209,524.971z"/>
			<path fill="#6097B2" d="M782.257,509.518c0.686,3.813,1.195,7.93,1.474,12.327l-0.204-0.152c0,0-0.305,1.398-0.864,3.889
				c-0.889-29.89-13.217-47.555-13.369-47.758l1.042-0.737c0.127,0.152,7.905,11.387,11.666,30.983
				c14.538-12.912,0.305-39.37,0.152-39.625l1.118-0.61C783.426,468.114,798.498,496.124,782.257,509.518z"/>
			<path fill="#6097B2" d="M826.406,459.93c-0.025,0.025-0.076,0.025-0.101,0.051c-0.585,0.229-1.271,0.33-1.983,0.33
				c-7.04,0-18.859-9.862-19.418-10.345l0.839-0.966c3.838,3.253,14.538,11.056,19.596,9.938
				C825.694,459.269,826.05,459.6,826.406,459.93z"/>
		</g>
		<path fill="#ADBEC4" d="M702.38,290.296c0,0,29.078-4.679,43.647,4.609c14.569,9.288,33.698,33.528,33.698,33.528
			s-22.711,3-25.282,18.426C754.444,346.859,737.947,307.569,702.38,290.296z"/>
		<path fill="#CFD8DC" d="M658.637,305.462c-12.3,6.65-32.861,31.614-33.789,46.967c-0.906,14.975,10.186,28.747,17.664,40.454
			c23.335,36.535,47.903,68.816,58.344,111.666c0.066,0.272,53.374,21.425,115.937-53.778c0,0-35.352-47.564-47.565-88.059
			c-4.971-16.483-10.029-33.993-19.578-48.521c-10.518-16.002-28.531-25.416-47.269-23.897
			C686.526,291.581,670.756,298.91,658.637,305.462z"/>
		<path fill="#EF6E4B" d="M653.476,290.136c0,0,7.867,13.443,4.232,20.835c0,0,26.996,9.32,26.996-5.785
			c0,0-5.088-11.321-3.171-18.64L653.476,290.136z"/>
		<path fill="#EF6E4B" d="M713.465,382.186c0,0-15.017,4.266-18.806,9.581c-3.789,5.316-7.161,17.24-7.161,17.24h25.968l4.882-8.984
			l5.717-11.973L713.465,382.186z"/>
		<g>
			<path fill="#164353" d="M688.64,275.147c0,0,10.542-4.422,3.722-36.133c-4.519-21.011-11.029-24.143-15.235-24.328
				c0,0-5.146-7.753-22.997-4.042c-12.226,2.542-21.979,9.968-26.273,23.706c-4.482,14.34,4.483,45.078,16.289,48.138
				L688.64,275.147z"/>
			<path fill="#FF8B66" d="M691.133,253.718c0,0,6.644-9.248,9.153-0.133c2.907,10.561-6.14,16.501-8.612,13.397
				C689.203,263.879,691.133,253.718,691.133,253.718z"/>
			<path fill="#FF8B66" d="M635.54,263.465c0,0-9.262-6.623-8.71,2.815c0.638,10.934,11.115,13.654,12.459,9.921
				C640.632,272.467,635.54,263.465,635.54,263.465z"/>
			<path fill="#FF8B66" d="M670.551,297.104c17.645-2.911,25.702-16.079,19.999-50.647c-2.942-17.831-13.818-27.271-33.581-24.011
				c-19.764,3.261-26.284,15.57-23.342,33.402C639.755,292.991,652.322,300.111,670.551,297.104z"/>
			
				<ellipse transform="matrix(-1 -0.0092 0.0092 -1 1288.7858 540.428)" fill="#DB614D" cx="645.635" cy="267.251" rx="4.132" ry="3.304"/>
			
				<ellipse transform="matrix(-0.974 0.2266 -0.2266 -0.974 1405.4242 361.1638)" fill="#DB614D" cx="681.981" cy="261.255" rx="4.132" ry="3.304"/>
			<g>
				<path fill="#1A4850" d="M646.47,247.958c-0.174,0-0.35-0.05-0.504-0.155c-0.407-0.278-0.514-0.834-0.236-1.241
					c2.467-3.62,7.419-4.314,7.63-4.343c0.519-0.058,0.936,0.281,1.003,0.767c0.065,0.489-0.278,0.938-0.767,1.005
					c-0.045,0.005-4.378,0.624-6.387,3.575C647.036,247.821,646.755,247.958,646.47,247.958z"/>
			</g>
			<g>
				<path fill="#1A4850" d="M679.693,242.476c-0.189,0-0.377-0.058-0.539-0.18c-2.857-2.157-7.148-1.343-7.191-1.336
					c-0.492,0.108-0.953-0.218-1.05-0.702c-0.097-0.484,0.218-0.954,0.702-1.05c0.206-0.04,5.118-0.977,8.615,1.66
					c0.395,0.297,0.472,0.858,0.176,1.251C680.232,242.353,679.964,242.476,679.693,242.476z"/>
			</g>
			
				<ellipse transform="matrix(-0.9867 0.1628 -0.1628 -0.9867 1336.8645 403.8518)" fill="#1A4850" cx="651.888" cy="256.691" rx="2.234" ry="4.022"/>
			
				<ellipse transform="matrix(-0.9867 0.1628 -0.1628 -0.9867 1383.0474 392.2883)" fill="#1A4850" cx="675.452" cy="252.805" rx="2.234" ry="4.021"/>
			<path fill="#1A4850" d="M679.863,273.064c0,0-15.306,4.106-23.797,2.476c0,0,5.868,7.39,14.246,5.259
				C678.691,278.667,679.863,273.064,679.863,273.064z"/>
			<path fill="#0E3944" d="M680.587,230.414c0,0-19.917,14.421-44.916,15.519l0.708,22.254c0,0-23.299-42.933,22.784-50.536
				c46.084-7.603,32.67,40.351,32.67,40.351S690.405,237.318,680.587,230.414z"/>
			<g>
				<path fill="#DB614D" d="M664.297,267.085l-0.127-1.924c0.027-0.003,2.686-0.209,3.376-1.854
					c0.285-0.678-0.847-2.838-1.847-4.743c-1.388-2.648-3.112-5.943-3.847-9.603l1.891-0.38c0.678,3.389,2.333,6.549,3.664,9.088
					c1.482,2.827,2.552,4.869,1.916,6.385C668.169,266.803,664.455,267.075,664.297,267.085z"/>
			</g>
			<path fill="#CE364C" d="M691.392,230.468c-33.499-14.538-65.118,15.606-65.118,15.606s-3.685-24.426,2.77-30.144
				c1.678-1.5,3.482-2.822,5.363-3.991c14.792-9.328,34.465-9.15,43.488-5.948c1.855,0.661,3.279,1.449,4.092,2.288
				C687.326,213.82,691.392,230.468,691.392,230.468z"/>
			<path fill="#CFD8DC" d="M687.326,225.029c0,0-28.136-5.566-54.366,11.793c0,0-1.678-15.758,1.449-24.883
				c14.792-9.328,34.465-9.15,43.488-5.948C683.157,211.991,687.326,225.029,687.326,225.029z"/>
			<path fill="#A02E44" d="M629.044,243.202c0,0,4.461-18.943,10.47-24.279c9.996-8.876,38.084-11.924,52.847-6.588
				s0,21.466,0,21.466S668.833,216.946,629.044,243.202z"/>
		</g>
		<path fill="#FF8B66" d="M672.491,369.081c0,0,11.499,17.81,31.08,28.289c0,0,24.499-21.264,56.262-19.351
			c0,0-26.327,47.499-48.933,52.758c-11.878,2.764-54.834-25.681-54.834-25.681S664.642,374.866,672.491,369.081z"/>
		<path fill="#ADBEC4" d="M630.145,336.791c10.523-17.131,34.799,8.193,43.061,26.28c8.262,18.087,14.291,21.922,14.291,21.922
			s-24.256,10.133-24.084,28.314C663.414,413.306,607.183,374.173,630.145,336.791z"/>
		<path fill="#EF6E4B" d="M703.571,389.545c0,0,14.775-14.495,63.358-33.413l-6.274-19.733c5.573-7.335,15.82-7.335,15.82-7.335
			s24.891,35.149,20.606,45.648C794.404,381.27,742.486,388.151,703.571,389.545z"/>
		<path fill="#FF8B66" d="M756.778,360.867c0,0,0.383-2.077,2.179-4.611c1.795-2.534,1.309-7.148,1.953-8.578
			c0.644-1.43,4.465-7.273,7.002-8.41c2.537-1.137,5.864-2.995,6.572,0.223c0.707,3.219-4.544,2.306-6.902,6.938
			c0,0,5.16-1.669,9.253-0.7c4.092,0.969,5.252,4.71,0.195,4.586c-4.033-0.099-9.229,2.777-9.229,2.777s5.256,0.79,4.408,3.214
			C771.037,359.657,764.626,357.594,756.778,360.867z"/>
	</g>
	<g>
		<path fill="#3E6575" d="M397.465,427.041c4.342,11.12,22.134,30.182,22.134,30.182s43.458-26.052,63.508-15.091
			c20.049,10.961,35.983,17.649,48.985,12.875c13.002-4.774-42.755-106.177-42.755-106.177l-72.292-27.586
			c0,0-1.577,18.284-9.837,21.533c-8.261,3.248-17.067,33.431-16.476,39.149C391.323,387.645,397.465,427.041,397.465,427.041z"/>
		<path fill="#EF6E4B" d="M478.803,457.886c0,0-18.64,36.54-57.127,83.338c0,0-3.944,55.649-105.716,143.207l-10.653-8.382
			c0,0,60.608-94.937,72.73-124.046c12.123-29.109-6.702-55.779,49.07-129.402L478.803,457.886z"/>
		<path fill="#662C33" d="M419.471,393.225c-16.046,30.739-21.432,70.035-21.432,70.035l-7.307,18.435
			c0,0,25.919,13.979,55.85,19.062l12.004-31.771L419.471,393.225z"/>
		<path fill="#FF8B66" d="M503.166,455.007c0,0,7.945,40.243,6.637,100.819c0,0,31.311,46.174,5.471,177.917h-13.555
			c0,0-11.074-112.088-19.546-142.461c-8.472-30.373-39.758-39.692-41.453-132.039L503.166,455.007z"/>
		<g>
			<path fill="#8B383E" d="M511.112,498.208c0,0-25.493,4.575-70.404,2.466l-0.711-5.058l-0.178-1.296l-4.651-32.737
				c0,0-4.321-5.337-8.769-14.03c-0.534-1.017-1.042-2.059-1.55-3.152c-6.049-12.886-11.412-31.618-5.388-51.164l9.48,0.432
				l1.322,0.076l31.72,1.449l1.347,0.076l10.421,0.483l1.627,0.076l6.761,0.305c0,0,34.363,30.932,28.238,88.12l0.432,7.955
				l0.051,1.296L511.112,498.208z"/>
			<g>
				<path fill="#662C33" d="M430.261,393.745c-0.89,2.618-6.888,22.036-3.863,53.807c-0.534-1.017-1.042-2.059-1.55-3.152
					c-2.262-29.051,2.948-47.174,4.092-50.732c0.153-0.432,0.229-0.635,0.229-0.661l1.195,0.432
					C430.363,393.466,430.312,393.567,430.261,393.745z"/>
				<path fill="#662C33" d="M510.857,493.506c-9.023,2.313-24.324,2.949-38.862,2.949c-13.039,0-25.417-0.534-32-0.839l-0.178-1.296
					c11.412,0.559,41.454,1.728,60.822-0.381l-1.245-20.461c0.305-23.866-6.914-44.25-13.878-58.331
					c-17.639-3.202-22.494-16.267-23.536-19.952c-0.152-0.585-0.229-0.94-0.229-0.966l1.245-0.203c0,0.025,0.102,0.483,0.33,1.245
					c1.144,3.813,5.871,15.174,21.452,18.427c-4.702-9.175-9.15-15.453-11.031-17.944c-0.559-0.762-0.915-1.195-0.94-1.22
					l0.966-0.813c0.051,0.051,0.635,0.762,1.601,2.109c5.897,8.006,25.798,38.125,25.29,77.597l1.245,20.359
					c3.381-0.407,6.405-0.915,8.896-1.576L510.857,493.506z"/>
			</g>
		</g>
		<path fill="#8BBDDB" d="M445.918,255.331c-10.116-5.571-83.014,23.016-83.014,23.016s-10.784,19.238-4.062,26.78
			c6.723,7.543,30.575,4.216,37.882,0c7.307-4.217,26.664-7.408,26.664-7.408L445.918,255.331z"/>
		<path fill="#F24052" d="M510.381,194.644c0,0,15.059,5.812,20.566,23.16c5.507,17.349-10.958,61.269-5.267,81.458
			c5.691,20.189,4.807,58.314-12.966,66.363c-17.774,8.049-54.225-6.354-62.051-28.382c-7.827-22.028-4.449-105.479,10.595-133.861
			C476.302,175,506.759,189.295,510.381,194.644z"/>
		<path fill="#8BBDDB" d="M493.077,269.493c3.972,4.281,14.182-3.349,14.182-3.349s-0.209,37.857-11.211,40.759
			c-11.002,2.903-39.045-29.821-37.891-38.717C459.312,259.291,484.269,259.998,493.077,269.493z"/>
		<path fill="#0E3944" d="M450.663,260.026c0,0,11.13,9.45,30.519,13.945c19.389,4.495,29.898-4.621,39.814,7.88
			c14.884,18.766-9.331,53.358-22.071,71.285c-4.75,6.683-14.773,25.22-16.798,43.003c0,0-33.642,9.773-62.655-2.915l-2.166-41.273
			C417.305,351.951,399.017,296.328,450.663,260.026z"/>
		<path fill="#8BBDDB" d="M485.446,300.181c0,0,15.372-36.635,19.824-38.974c4.452-2.339,15.741,3.276,18.008,8.287
			c2.267,5.011,0,15.943,0,15.943S511.155,271.598,485.446,300.181z"/>
		<path fill="#6097B2" d="M559.073,454.999c-6.99,14.31-24.146,18.427-24.146,18.427s-1.296-1.983-3.482-5.541
			c-0.229-0.356-0.483-0.763-0.712-1.169c-13.496-21.884-54.748-91.907-53.934-128.329c0.94-43.513,29.331-67.405,29.331-67.405
			c14.411,3.431,18.961,7.371,18.961,7.371s4.855,24.756,0.407,54.544c-4.448,29.763-12.531,37.642-8.464,39.879
			c4.041,2.211,0,6.659,0,6.659s23.917,33.321,28.39,43.691c2.898,6.761,7.828,18.249,10.904,25.417
			c0.203,0.508,0.407,1.017,0.61,1.474C558.234,453.042,559.073,454.999,559.073,454.999z"/>
		<path fill="#FF8B66" d="M517.529,278.347c0,0-17.124,12.694-7.148,32.089l47.466,49.139
			c-26.052,27.76-28.634,39.158-47.466,51.956l7.148,11.07c0,0,65.954-50.689,66.052-63.026
			C583.623,354.294,543.295,290.405,517.529,278.347z"/>
		<path fill="#FF8B66" d="M509.341,411.534c0,0-9.047,1.004-14.744,2.428c-5.697,1.424-13.294,2.849-13.531,4.036
			c-0.237,1.187,12.581,0,12.581,0s-10.445,4.291-10.682,5.944c-0.237,1.653,13.293-1.196,13.293-1.196s-8.546,5.223-8.071,6.647
			c0.475,1.424,11.002-2.136,11.002-2.136s-1.958,4.985-3.987,7.359c0,0,2.039,1.12,6.177-3.475
			c4.138-4.596,10.744-3.12,15.974-7.198C522.581,419.863,514.103,410.921,509.341,411.534z"/>
		<path fill="#6097B2" d="M460.84,266.123c0,0-13.028,8.418-21.257,28.752c-8.229,20.333-34.191,58.596-40.272,68.482
			c-6.082,9.886-1.846,63.685-1.846,63.685s-7.625-32.618-11.014-45.327c-3.389-12.708,10.942-44.111,13.096-45.777
			c2.154-1.667,13.168,1.384,11.05-11.367c-2.118-12.751,27.433-67.691,35.321-69.239
			C445.918,255.331,458.554,257.705,460.84,266.123z"/>
		<path fill="#6097B2" d="M420.552,268.873c-0.229,0.432-0.483,0.864-0.788,1.271c-2.948,4.245-8.438,7.625-8.438,7.625
			s-9.938,13.929-10.04,15.53c-0.102,1.373-17.258,13.827-24.883,13.573h-0.025c-1.042-0.025-1.906-0.305-2.516-0.864
			c-4.524-4.27,15.403-40.108,19.8-47.834c0.28-0.508,0.508-0.89,0.661-1.144c0.102-0.204,0.178-0.331,0.178-0.331
			s-3.508-13.064,11.132-10.624c12.175,2.008,14.589,11.691,15.86,18.173C421.797,265.798,421.365,267.373,420.552,268.873z"/>
		<path fill="#FF8B66" d="M369.433,282.416c10.057-13.22,45.445-38.859,64.084-46.45l4.66,8.663c0,0-36.017,31.665-44.479,45.212
			c-8.462,13.546-18.943,19.148-28.958,14.637C354.725,299.966,367.317,285.198,369.433,282.416z"/>
		<path fill="#8BBDDB" d="M417.045,266.153l-1.906,2.186l-0.966,1.118l-3.152,3.609c0,0-7.93,9.608-7.625,13.471
			c0.229,2.77-15.047,15.174-26.992,20.333c-4.855,2.11-9.175,3.025-11.692,1.576c-8.642-4.981-6.71-19.952-1.805-30.093
			c4.27-8.845,23.155-20.257,28.009-23.053c0.61-0.381,0.991-0.61,1.118-0.661c0.025-0.025,0.025-0.025,0.025-0.025l1.805-7.015
			c0,0,6.583-3.965,11.768-1.525c0,0-11.437,0.483-9.557,4.931C398.007,255.478,413.867,266.001,417.045,266.153z"/>
		<g>
			<path fill="#FF8B66" d="M458.575,229.477c-11.514,4.728-9.862,15.148-20.41,15.148c-6.532,0-7.396-7.472-7.396-7.472
				c2.948-6.38,4.829-17.258,5.236-22.443c0.432-5.185,2.16-3.177,2.16-3.177c0-0.483-0.025-0.94-0.051-1.398
				c-0.153-3.482-0.788-6.024,1.499-4.524c2.593,1.678,3.482,11.539,3.482,11.539c2.135-14.386-1.042-16.521,1.449-15.25
				c3.406,1.728,3.431,14.437,3.431,14.818c2.745-8.362,2.008-13.14,3.914-11.234c1.932,1.932-0.966,17.283-2.11,22.926
				c-0.254,1.271-0.432,2.059-0.432,2.059C458.474,225.995,458.575,229.477,458.575,229.477z"/>
			<path fill="#EF6E4B" d="M449.781,228.41c-0.254,1.271-0.432,2.059-0.432,2.059s-4.219-0.407-7.295,4.143
				C442.055,234.611,442.919,228.511,449.781,228.41z"/>
			<path fill="#EF6E4B" d="M438.801,221.852c0.076-1.22,0.585-8.21-0.635-10.319c0-0.483-0.025-0.94-0.051-1.398
				C440.758,210.694,439.081,220.378,438.801,221.852z"/>
		</g>
		<path fill="#8BBDDB" d="M445.945,282.488c0,0,7.781-21.088,10.256-25.797c2.476-4.708,15.367-3.901,25.125-2.081
			c9.757,1.821,11.751,14.883,11.751,14.883S463.395,255.488,445.945,282.488z"/>
		<path fill="#EF6E4B" d="M496.049,240.983c0,0-9.322,17.213-9.175,36.301c0,0-15.141,10.29-20.559-2.599
			c0,0,5.751-16.885,2.971-39.68C467.426,219.741,496.049,240.983,496.049,240.983z"/>
		<g>
			<path fill="#FF8B66" d="M466.315,217.101c0,0-2.77-9.867-7.7-2.931c-5.711,8.036,0.11,15.846,3.157,13.983
				C464.818,226.289,466.315,217.101,466.315,217.101z"/>
			<path fill="#FF8B66" d="M510.328,242.471c0,0,9.873-2.748,6.499,5.065c-3.91,9.051-13.607,8.123-13.593,4.551
				C503.247,248.515,510.328,242.471,510.328,242.471z"/>
			<path fill="#FF8B66" d="M470.355,260.133c-14.026-7.898-16.783-21.517-1.31-48.994c7.981-14.173,20.088-18.806,35.797-9.96
				c15.71,8.847,17.431,21.265,9.45,35.439C497.666,266.143,484.844,268.292,470.355,260.133z"/>
			
				<ellipse transform="matrix(0.9427 0.3337 -0.3337 0.9427 109.6198 -153.1349)" fill="#DB614D" cx="500.623" cy="242.562" rx="3.719" ry="2.974"/>
			
				<ellipse transform="matrix(0.8376 0.5463 -0.5463 0.8376 200.2408 -220.9564)" fill="#DB614D" cx="471.733" cy="226.294" rx="3.719" ry="2.974"/>
			<g>
				<path fill="#1A4850" d="M506.136,226.037c-0.36,0-0.688-0.242-0.779-0.607c-0.794-3.129-4.263-4.972-4.298-4.989
					c-0.394-0.206-0.546-0.693-0.341-1.086c0.205-0.393,0.687-0.547,1.086-0.341c0.169,0.088,4.143,2.202,5.112,6.022
					c0.109,0.429-0.151,0.867-0.582,0.977C506.267,226.03,506.2,226.037,506.136,226.037z"/>
			</g>
			<g>
				<path fill="#1A4850" d="M486.874,212.335c-0.141,0-0.284-0.037-0.415-0.115c-0.033-0.02-3.414-2.028-6.497-1.087
					c-0.427,0.131-0.875-0.109-1.004-0.535c-0.129-0.424,0.109-0.874,0.535-1.004c3.772-1.155,7.636,1.151,7.799,1.25
					c0.38,0.23,0.5,0.722,0.271,1.103C487.412,212.196,487.147,212.335,486.874,212.335z"/>
			</g>
			
				<ellipse transform="matrix(0.8714 0.4907 -0.4907 0.8714 177.8299 -214.8269)" fill="#1A4850" cx="498.588" cy="231.707" rx="2.011" ry="3.619"/>
			
				<ellipse transform="matrix(0.8713 0.4907 -0.4907 0.8713 170.1395 -206.5455)" fill="#1A4850" cx="478.923" cy="221.159" rx="2.011" ry="3.619"/>
			<path fill="#1A4850" d="M473.862,240.029c0,0,8.047,6.141,13.862,6.327c0,0-6.184,5.037-10.628,1.77
				C472.651,244.859,473.862,240.029,473.862,240.029z"/>
			<path fill="#1A4850" d="M496.112,229.174c0,0,3.694-3.571,5.206-2.314c1.512,1.257,0.72,5.651,0.72,5.651l3.232,0.083
				l-2.673-1.076c0,0,0.861-4.563-0.801-5.509C499.431,224.662,496.112,229.174,496.112,229.174z"/>
			<path fill="#1A4850" d="M482.198,222.03c0,0,1.138-5.01-0.72-5.65c-1.858-0.641-5.205,2.314-5.205,2.314l-1.747-2.721
				l2.307,1.727c0,0,3.455-3.102,5.125-2.172C484.336,216.853,482.198,222.03,482.198,222.03z"/>
			<path fill="#F24052" d="M508.568,207.054c0,0-5.024-6.982-11.963-1.438c-6.939,5.545-22.59,14.417-30.29,11.485
				c-7.7-2.931,16.844-35.736,38.154-26.13c21.31,9.607,19.393,40.878,10.529,50.821c-8.864,9.943-4.671,0.679-4.671,0.679
				s0.592-14.106,3.554-23.454C516.843,209.67,508.568,207.054,508.568,207.054z"/>
			<g>
				<path fill="#DB614D" d="M484.948,236.831c-0.39,0-0.797-0.052-1.216-0.158l0.427-1.683c1.433,0.364,2.138-0.252,2.476-0.831
					c0.478-0.819,0.411-1.874,0.032-2.271c-0.222-0.231-0.601-0.207-1.132,0.071l-0.804-1.539c1.766-0.925,2.82-0.12,3.192,0.271
					c0.956,1.002,1.048,2.909,0.211,4.344C487.452,236.2,486.306,236.831,484.948,236.831z"/>
			</g>
		</g>
		<g>
			<path fill="#8BBDDB" d="M587.667,357.628c-0.839,12.327-31.339,52.46-36.422,53.883c-1.321,0.356-2.669,1.093-3.939,1.957
				c-0.534,0.381-1.068,0.788-1.576,1.195c-2.898,2.338-5.083,5.032-5.083,5.032c-8.896-0.584-33.88-12.149-25.849-14.691
				c0.483-0.152,1.017-0.432,1.601-0.839c0.33-0.229,0.686-0.483,1.042-0.813c9.455-7.93,27.857-40.108,27.984-42.548
				c0.102-2.669,3.279-3.177,3.279-3.177s-17.359-25.493-27.424-28.568c-10.065-3.075-15.148-15.25-15.148-15.25
				c-9.938-42.065,18.961-35.456,18.961-35.456C546.39,291.036,588.505,345.275,587.667,357.628z"/>
			<g>
				<path fill="#3E6575" d="M547.305,413.469c-0.534,0.381-1.068,0.788-1.576,1.195c-13.649-0.94-25.086-7.65-29.331-10.497
					c0.33-0.229,0.686-0.483,1.042-0.813C521.99,406.327,533.631,412.96,547.305,413.469z"/>
			</g>
		</g>
		<g>
			<path fill="#3E6575" d="M420.552,268.873c-0.229,0.432-0.483,0.864-0.788,1.271c-1.957-0.076-3.812-0.305-5.592-0.686
				c-9.023-1.83-15.962-6.888-20.511-11.285c-1.042-1.017-1.957-1.983-2.745-2.872c0.61-0.381,0.991-0.61,1.118-0.661
				c0.661,0.737,1.423,1.551,2.287,2.389c4.524,4.448,11.564,9.633,20.816,11.31C416.866,268.67,418.671,268.848,420.552,268.873z"
				/>
		</g>
		<g>
			<path fill="#3E6575" d="M556.938,450.018c-4.194,7.091-11.946,15.657-25.493,17.868c-0.229-0.356-0.483-0.763-0.712-1.169
				c13.903-2.084,21.604-11.107,25.595-18.173C556.531,449.052,556.734,449.56,556.938,450.018z"/>
		</g>
		<g>
			<path fill="#CFD8DC" d="M325.621,681.284c0,0-3.177,3.126-6.481,8.87c-3.304,5.744,0.33,11.031-15.657,24.349
				c0,0-32.254-18.885-46.817-43.157c0,0,0.254-6.939,7.294-8.565c3.787-0.864,14.208,4.016,24.222,5.897
				c1.423,0.254,2.847,0.483,4.245,0.584c1.754,0.153,3.482,0.178,5.134-0.025c1.525-0.152,2.974-0.483,4.321-1.042h0.025
				c3.406-1.398,6.1-4.169,7.498-9.023c0,0,8.565,4.88,2.846,13.141C312.251,672.312,322.418,667.864,325.621,681.284z"/>
			<path fill="#ADBEC4" d="M303.483,714.504c0,0-32.254-18.885-46.817-43.157c0,0,5.414-1.144,9.887,6.888
				C271.026,686.291,306.101,704.566,303.483,714.504z"/>
			<path fill="#ADBEC4" d="M303.61,676.328c-2.618,4.143-2.567-3.507-6.049-7.091c1.525-0.152,2.974-0.483,4.321-1.042h0.025
				C303.457,669.872,305.668,673.1,303.61,676.328z"/>
			<path fill="#ADBEC4" d="M293.468,676.557c-2.77,2.618-3.66-4.219-5.287-7.879c1.423,0.254,2.847,0.483,4.245,0.584
				C294.053,671.473,295.578,674.549,293.468,676.557z"/>
		</g>
		<g>
			<path fill="#CFD8DC" d="M524.049,765.083h-45.623c0,0-1.906-6.354,0-13.344c0.813-3.025,5.541-5.846,9.938-9.786
				c1.22-1.093,2.389-2.237,3.482-3.533c0.864-1.017,1.652-2.135,2.313-3.33c0.839-1.449,1.5-3.025,1.881-4.753
				c0.737-3.457,0.458-7.523-1.525-12.403c0,0,15.53-3.254,21.071,5.21c0,0,0.534-3.914,5.464-1.296c0,0-0.712,7.854,0.254,14.437
				C522.27,742.844,528.395,744.75,524.049,765.083z"/>
			<path fill="#ADBEC4" d="M512.179,737.608c-0.407,0.458-0.966,0.686-1.525,0.686c-0.483,0-0.94-0.153-1.347-0.458
				c-2.364-1.881-7.574-4.804-15.148-2.745c0.839-1.449,1.5-3.025,1.881-4.753c3.05-1.118,8.794-1.779,15.885,4.27
				C512.84,735.371,512.967,736.718,512.179,737.608z"/>
			<path fill="#ADBEC4" d="M508.341,745.182l-0.254,0.381c-0.61,0.94-1.83,1.246-2.796,0.686c-3.101-1.83-10.065-5.287-16.928-4.296
				c1.22-1.093,2.389-2.237,3.482-3.533c3.38-0.788,9.76-1.22,16.038,3.99C508.697,743.098,508.926,744.292,508.341,745.182z"/>
		</g>
	</g>
</g>
</svg>
