<?xml version="1.0" encoding="utf-8"?>
<!-- Generator: Adobe Illustrator 17.0.0, SVG Export Plug-In . SVG Version: 6.00 Build 0)  -->
<!DOCTYPE svg PUBLIC "-//W3C//DTD SVG 1.1//EN" "http://www.w3.org/Graphics/SVG/1.1/DTD/svg11.dtd">
<svg version="1.1" id="Capa_1" xmlns="http://www.w3.org/2000/svg" xmlns:xlink="http://www.w3.org/1999/xlink" x="0px" y="0px"
	 width="1190.55px" height="841.89px" viewBox="0 0 1190.55 841.89" enable-background="new 0 0 1190.55 841.89"
	 xml:space="preserve">
<path fill="#574676" d="M926.543,496.067c0,18.027-14.613,32.64-32.64,32.64c-18.027,0-32.64-14.613-32.64-32.64h-84.616v65.674
	c-18.027,0-32.64,14.613-32.64,32.64c0,18.027,14.613,32.64,32.64,32.64v65.674h212.476c12.121,0,22.038-9.917,22.038-22.038
	V496.067H926.543z"/>
<g>
	<path fill="#F0CE4A" d="M761.471,140.655V55.51H492.472c0,18.55,0,48.784,0,85.146c18.027,0,32.64,14.613,32.64,32.64
		c0,18.027-14.613,32.64-32.64,32.64c0,27.561,0,56.474,0,85.146h106.137c0,18.027,14.613,32.64,32.64,32.64
		c18.027,0,32.64-14.613,32.64-32.64h97.583v-85.146c18.027,0,32.64-14.613,32.64-32.64
		C794.111,155.269,779.498,140.655,761.471,140.655z"/>
</g>
<g>
	<ellipse fill="#D0D2D3" cx="136.09" cy="692.979" rx="53.143" ry="2.747"/>
	<path fill="#F2502A" d="M478.037,561.741c0-21.232,0-43.374,0-65.674h-96.029c0-18.027-14.613-32.64-32.64-32.64
		s-32.64,14.613-32.64,32.64h-96.029v174.591c0,12.121,9.917,22.038,22.038,22.038h235.301c0-16.849,0-39.481,0-65.674
		c-18.027,0-32.64-14.613-32.64-32.64C445.397,576.354,460.01,561.741,478.037,561.741z"/>
	<g>
		<path fill="#C06C58" d="M215.608,563.173l3.158-1.224c0,0,0.838,2.127,1.933,1.224v-13.79c0,0-1.16-0.065-1.289,1.675
			c-0.129,1.74-1.84,7.54-1.84,7.54l-3.186,1.804L215.608,563.173z"/>
		<polyline fill="#608EB7" points="162.213,562.256 191.723,564.206 215.466,557.994 217.545,564.495 189.779,572.282 
			158.637,571.933 		"/>
		<path fill="#DE866B" d="M215.608,557.172l3.158-1.224c0,0,0.838,2.127,1.933,1.224v-13.79c0,0-1.16-0.065-1.289,1.675
			c-0.129,1.74-1.84,7.539-1.84,7.539l-3.186,1.804L215.608,557.172z"/>
		<path fill="#DE866B" d="M182.788,527.184c0,0-0.475,19.22-0.863,21.81c-0.388,2.591-19.505-3.621-19.505-3.621
			s-0.705-20.596,3.831-22.692S182.885,523.548,182.788,527.184z"/>
		<polygon fill="#DE866B" points="181.928,532.33 184.739,539.515 181.088,539.348 		"/>
		<polygon fill="#DE866B" points="172.648,546.806 166.989,555.241 159.167,551.995 163.076,544.037 		"/>
		<path fill="#3C425A" d="M122.842,602.609l-7.377,41.909L94.37,680.306l6.286,4.49l24.987-37.882l15.521-34.056
			C141.164,612.859,127.524,601.709,122.842,602.609z"/>
		<path fill="#4F577B" d="M122.842,602.609c0,0-6.179,8.983-2.288,14.671c3.891,5.688,31.431,30.832,31.431,30.832l2.694,38.316
			h8.382l-2.095-44.902L147.1,611.293L122.842,602.609z"/>
		<path fill="#82B9F0" d="M165.344,549.317c0,0-2.705-4.454-7.618-0.991c-4.913,3.464-13.607,3.863-16.037,21.184
			c0,0-2.047,8.47-9.59,17.378c-7.543,8.907-9.257,15.721-9.257,15.721s8.119,8.823,26.522,12.336c0,0,14.105-30.07,16.656-35.79
			c2.55-5.72,6.158-9.765,5.173-16.46C170.208,556.001,168.742,553.839,165.344,549.317z"/>
		<polygon fill="#1D2F4F" points="154.679,686.428 154.679,692.979 177.793,692.979 163.06,686.428 		"/>
		<polygon fill="#1D2F4F" points="100.656,684.797 100.327,689.704 108.579,692.837 96.419,692.837 91.533,684.455 94.37,680.306 		
			"/>
		<polyline fill="#82B9F0" points="162.187,556.975 191.717,558.594 215.389,552.116 217.541,558.594 189.864,566.691 
			158.72,566.691 		"/>
		<path fill="#3B3860" d="M176.259,521.28c1.558,0.589,2.892,1.675,4.461,2.233c1.569,0.558,3.631,0.386,4.488-1.041
			c0.854,0.712,1.117,1.969,0.847,3.048c-0.269,1.079-0.992,1.995-1.824,2.733c-0.493,0.437-1.035,0.827-1.641,1.083
			c-1.261,0.533-2.71,0.449-4.03,0.085c-1.32-0.364-2.55-0.989-3.807-1.532c-0.369-0.159-0.83-0.302-1.143-0.049
			c-0.246,0.198-0.288,0.561-0.496,0.798c-0.57,0.647-1.785-0.088-2.456,0.454c-0.298,0.241-0.378,0.655-0.438,1.034
			c-0.258,1.637-0.517,3.274-0.775,4.911c-0.382,0.197-0.868-0.081-1.061-0.466c-0.193-0.385-0.179-0.835-0.189-1.265
			c-0.009-0.43-0.059-0.893-0.342-1.217c-0.495-0.567-1.436-0.417-2.067-0.007c-0.66,0.43-1.178,1.117-1.282,1.898
			c-0.104,0.781,0.266,1.636,0.967,1.994c0.44,0.225,1.003,0.274,1.302,0.667c0.308,0.405,0.187,0.98,0.036,1.466
			c-0.165,0.529-0.35,1.052-0.555,1.568c-0.122,0.308-0.256,0.621-0.481,0.864c-0.314,0.34-0.769,0.509-1.214,0.634
			c-2.598,0.729-5.498,0.3-7.774-1.149c-0.054-0.034-0.108-0.07-0.149-0.119c-0.258-0.312,0.199-0.699,0.548-0.904
			c1.213-0.714,1.827-2.136,2.1-3.517c0.501-2.538,0.113-5.156,0.153-7.743c0.029-1.88,0.382-3.941,1.817-5.157
			c1.343-1.138,3.258-1.226,5.019-1.258c0.115-1.368,0.36-2.952,1.553-3.632c0.151,0.855,0.302,1.709,0.453,2.563
			c0.562,0.017,0.817-1.143,1.296-0.848c0.214,0.131,0.179,0.443,0.229,0.689c0.245,1.2,1.853,0.681,2.667,0.685
			C173.771,520.79,175.025,520.813,176.259,521.28z"/>
		<path fill="#608EB7" d="M169.718,557.649c0.116,0,0.221-0.079,0.248-0.196c0.032-0.139-0.054-0.274-0.191-0.305
			c-0.376-0.088-0.645-0.435-0.929-0.803l-0.135-0.174c-0.518-0.651-1.147-0.928-1.678-0.729c-0.183,0.068-0.33,0.184-0.46,0.286
			c-0.08,0.063-0.16,0.128-0.249,0.175c-0.39,0.209-0.872,0.025-1.062-0.063c-0.225-0.107-0.434-0.246-0.656-0.395
			c-0.153-0.102-0.306-0.203-0.466-0.296c-1.266-0.733-2.835-0.747-4.097-0.758c-0.639-0.014-1.298-0.012-1.938,0.163
			c-0.745,0.203-1.342,0.642-1.635,1.207c-0.065,0.125-0.017,0.279,0.108,0.344c0.125,0.063,0.28,0.018,0.343-0.109
			c0.229-0.439,0.709-0.786,1.317-0.951c0.573-0.156,1.195-0.146,1.801-0.146c1.264,0.012,2.696,0.025,3.846,0.691
			c0.15,0.086,0.294,0.182,0.438,0.279c0.227,0.151,0.462,0.309,0.723,0.43c0.546,0.256,1.099,0.275,1.518,0.052
			c0.116-0.061,0.221-0.144,0.325-0.225c0.11-0.087,0.213-0.168,0.32-0.209c0.37-0.138,0.813,0.205,1.103,0.568l0.131,0.168
			c0.312,0.404,0.664,0.861,1.217,0.988C169.68,557.648,169.7,557.649,169.718,557.649z"/>
		<g>
			<path fill="#537E9D" d="M171.237,566.691c-0.164,1.292-0.49,2.502-0.93,3.67c-3.368-2.88-9.579-3.67-9.579-3.67H171.237z"/>
		</g>
	</g>
</g>
<g>
	<g>
		<polyline fill="#BEB3A8" points="494.523,356.256 471.227,338.037 457.672,317.578 451.788,321.038 467.293,345.352 
			490.737,365.853 		"/>
		<polygon fill="#935948" points="465.628,407.489 441.671,444.289 428.04,485.776 435.35,487.752 449.969,448.438 481.85,414.364 
					"/>
		<g>
			<path fill="#DE866B" d="M486.579,323.652c0,0-3.35,18.931-3.484,21.547c-0.134,2.616,19.836,0.323,19.836,0.323
				s4.779-20.046,0.75-23C499.651,319.567,487.206,320.069,486.579,323.652z"/>
			<g>
				<path fill="#3B3860" d="M503.681,322.521c-4.029-2.954-16.475-2.452-17.102,1.13c0,0-0.094,0.532-0.241,1.371
					c0.967,0.066,2.059-0.004,2.74,0.042c3.135,0.211,6.27,0.422,9.405,0.632c0.17,0.012,0.349,0.026,0.492,0.119
					c0.223,0.146,0.292,0.437,0.339,0.7c0.739,4.07,0.95,8.235,0.626,12.358c0.403,0.262,0.978,0.005,1.225-0.407
					c0.247-0.413,0.256-0.92,0.257-1.4c0.002-0.67,0.004-1.34,0.007-2.009c0.003-0.946,0.035-1.976,0.637-2.707
					c0.121-0.147,0.278-0.284,0.467-0.298c0.314-0.024,0.542,0.286,0.686,0.566c0.289,0.565,0.507,1.241,0.256,1.824
					c-0.197,0.457-0.641,0.76-0.9,1.184c-0.259,0.425-0.196,1.142,0.293,1.234c0.265,0.05,0.519-0.115,0.729-0.283
					c0.441-0.352,0.827-0.758,1.183-1.191C505.499,329.934,505.728,324.023,503.681,322.521z"/>
			</g>
			<polygon fill="#DE866B" points="486.4,328.865 482.219,335.35 485.831,335.911 			"/>
		</g>
		<polygon fill="#DE866B" points="494.137,340.776 492.164,350.741 499.987,353.985 502.858,345.597 		"/>
		<path fill="#B46F58" d="M486.257,405.697c0,0,6.179,8.983,2.288,14.671c-3.892,5.688-31.431,30.832-31.431,30.832l-2.694,38.316
			h-8.382l2.095-44.901l18.3-38.835L486.257,405.697z"/>
		<path fill="#EADFD3" d="M497.519,347.721c0,0,5.064-1.231,6.082,4.693c1.018,5.924,6.878,12.36-3.667,26.316
			c0,0-4.549,7.432-5.527,19.063c-0.977,11.631-4.589,17.658-4.589,17.658s-11.981,0.485-27.466-10.06
			c0,0,11.322-31.225,13.57-37.07c2.248-5.845,2.563-11.257,7.997-15.288C489.352,349,491.918,348.51,497.519,347.721z"/>
		<g>
			<path fill="#BEB3A8" d="M491.244,363.764l-12.72-3.217c-0.919,2.436-1.558,5.053-2.603,7.772
				c-0.098,0.254-0.218,0.572-0.348,0.917C482.23,363.074,491.244,363.764,491.244,363.764z"/>
		</g>
		<polygon fill="#3B3B3B" points="454.433,489.516 454.433,496.067 431.318,496.067 446.051,489.516 		"/>
		<polygon fill="#3B3B3B" points="435.404,487.622 433.732,493.956 412.159,488.279 428.076,485.705 		"/>
		<path fill="#3B3860" d="M484.508,335.706c0,0,4.806,0.224,8.295,3.088c3.49,2.863,12.127-4.598,12.127-4.598l-0.425,3.132
			c0,0-6.182,6.224-11.492,9.124c-5.31,2.9-11.984,3.481-10.794-1.977C483.409,339.017,484.508,335.706,484.508,335.706z"/>
	</g>
	
		<path fill="none" stroke="#BEB3A8" stroke-width="0.2835" stroke-linecap="round" stroke-linejoin="round" stroke-miterlimit="10" d="
		M484.591,352.539c0.724,0.031,1.527,0.352,2.251,0.383c0.16,0.007,0.328,0.016,0.467,0.095c0.301,0.172,0.377,0.613,0.691,0.76
		c0.555,0.26,1.137-0.634,1.712-0.424c0.211,0.077,0.342,0.283,0.517,0.424c0.484,0.392,1.19,0.234,1.796,0.091
		c1.663-0.394,3.551-0.489,4.945,0.501c1,0.71,1.589,1.887,1.837,3.089c0.248,1.201,0.193,2.442,0.137,3.667"/>
	<g>
		<path fill="#D94D52" d="M459.389,296.52c-4.21-17.528-21.833-28.324-39.361-24.114c-8.493-35.356-15.554-64.754-19.887-82.791
			l-228.793,54.957c-11.785,2.831-19.112,14.79-16.281,26.576l49.873,207.628l97.681-23.464c-0.606-2.474-0.962-5.045-0.962-7.705
			c0-17.866,14.483-32.348,32.348-32.348c15.318,0,28.119,10.659,31.467,24.956l89.687-21.543
			c-6.697-27.878-13.449-55.992-19.887-82.791C452.803,331.67,463.599,314.048,459.389,296.52z"/>
		<path fill="#DE866B" d="M440.852,336.661c0.013-0.622,0.564-1.078,0.859-1.626c0.559-1.037,0.165-2.308-0.238-3.415
			c-0.134-0.367-0.276-0.747-0.556-1.02c-0.28-0.272-0.741-0.401-1.068-0.186c-0.343,0.225-0.396,0.702-0.375,1.112
			c0.034,0.65,0.167,1.295,0.395,1.905c0.06,0.163,0.129,0.33,0.115,0.503c-0.04,0.477-0.703,0.674-1.124,0.448
			c-0.421-0.227-0.642-0.695-0.836-1.132c-0.47-1.062-0.94-2.123-1.409-3.185c-0.148-0.333-0.32-0.693-0.649-0.851
			c-0.396-0.189-0.862-0.015-1.265,0.158c-0.871,0.375-1.742,0.75-2.613,1.126c-0.337,0.145-0.72,0.349-0.771,0.712
			c-0.034,0.243,0.099,0.475,0.225,0.687c1.149,1.927,2.113,3.963,2.875,6.073c0.103,0.286,0.209,0.583,0.418,0.804
			c0.209,0.22,0.499,0.341,0.781,0.456c0.799,0.326,1.638,0.659,2.498,0.573c0.356-0.035,0.713-0.143,1.067-0.088
			c1.091,0.169,2.411,2.733,3.583,1.18C443.975,339.29,440.823,338.077,440.852,336.661z"/>
		<polyline fill="#EADFD3" points="492.934,354.169 463.909,348.499 442.547,336.415 438.873,342.168 463.72,356.803 
			493.913,364.439 		"/>
	</g>
</g>
<g>
	<path fill="#A18239" d="M777.896,406.213l7.631,14.696l20.547,4.448l-0.483,4.143l-24.254-3.626l-9.266-19.258
		C772.071,406.616,776.372,403.279,777.896,406.213z"/>
	<path fill="#DE866B" d="M787.941,374.303c0,0,3.282,18.944,3.407,21.56c0.124,2.617-19.837,0.252-19.837,0.252
		s-4.708-20.063-0.668-23.003C774.883,370.172,787.327,370.719,787.941,374.303z"/>
	<path fill="#3B3860" d="M773.195,389.867c0.108,1.122-0.098,2.299-0.729,3.233c-0.631,0.934-1.719,1.587-2.846,1.546
		c-0.745-0.027-1.446-0.34-2.125-0.647c0.695,0.027,1.397-0.249,1.889-0.742c-0.574,0.147-1.204,0.066-1.722-0.223
		c0.924-0.287,1.846-0.818,2.245-1.699c0.234-0.515,0.264-1.095,0.291-1.66c0.037-0.762,0.073-1.523,0.11-2.285
		c0.019-0.393,0.039-0.794,0.178-1.162c0.098-0.259,0.251-0.494,0.427-0.708c0.369-0.449,0.896-0.828,1.477-0.803
		c0.398,0.017,0.902,0.345,0.973,0.766c0.069,0.406-0.312,0.815-0.405,1.209C772.711,387.745,773.094,388.821,773.195,389.867z"/>
	<polygon fill="#DE866B" points="782.585,396.104 776.925,404.539 769.103,401.293 773.013,393.336 	"/>
	<path fill="#8A7C6F" d="M1052.529,262.346l-204.57-57.421l-23.01,81.977c17.356,4.872,27.476,22.891,22.605,40.247
		c-4.872,17.356-22.89,27.476-40.246,22.605l-23.011,81.977l81.468,22.867c-4.872,17.356,5.249,35.375,22.605,40.246
		c17.356,4.872,35.375-5.249,40.246-22.605l81.468,22.867l57.707-205.588C1071.067,277.849,1064.199,265.621,1052.529,262.346z"/>
	<path fill="#DE866B" d="M802.828,432.534c0.151-0.453,0.423-0.887,0.84-1.119c0.417-0.232,0.994-0.211,1.324,0.135
		c0.334,0.351,0.328,0.917,0.145,1.366c-0.182,0.449-0.507,0.822-0.77,1.228c-0.085,0.132-0.166,0.274-0.173,0.431
		c-0.011,0.239,0.149,0.449,0.306,0.629c1.318,1.516,3.003,2.71,4.87,3.451c0.435,0.172,0.956,0.418,0.983,0.884
		c0.021,0.362-0.286,0.658-0.599,0.841c-1.292,0.756-2.952,0.479-4.323-0.122c-1.507-0.66-2.853-1.685-3.891-2.962
		c-0.442-0.544-0.855-1.155-1.484-1.466c-0.731-0.36-2.446-0.388-2.356-1.61c0.052-0.712,0.489-0.706,1.108-0.733
		C800.748,433.404,801.98,435.08,802.828,432.534z"/>
	<path fill="#23233C" d="M741.728,449.943c0,0,0.85,11.242,27.032,17.16l-2.702,20.457l7.527,1.029l4.31-26.311
		C777.896,462.279,744.031,448.094,741.728,449.943z"/>
	<path fill="#39375F" d="M741.673,448.858c0,0-0.951,12.598,22.255,14.283l21.854,2.362l-6.608,23.205l8.185,1.802l11.715-33.709
		l-28.703-9.773C770.371,447.029,748.031,443.478,741.673,448.858z"/>
	<path fill="#EBC14E" d="M747.359,414.901c1.879-3.19,4.116-6.173,6.671-8.853c1.187-1.245,2.452-2.536,3.748-3.646
		c1.4-1.199,3.325-1.991,5.031-2.63c0.178-0.067,0.356-0.131,0.536-0.195c2.045-0.722,4.19-1.237,6.358-1.2
		c2.168,0.037,4.37,0.662,6.058,2.023c1.458,1.177,3.103,3.469,2.773,5.424c-0.449,2.661-1.15,5.249-1.819,7.862
		c-2.269,8.866-3.155,18.084-2.617,27.219c0.154,2.61,0.397,5.363-0.741,7.717c-1.918,3.968-6.862,5.238-11.211,5.957
		c-8.312,1.374-19.418,0.733-21.758-8.984C738.124,436.196,742.656,422.886,747.359,414.901z"/>
	<g>
		<path fill="#AA8A3D" d="M769.853,411.901c0,0,0.978,16.723,4.203,26.912c-0.198-5.651,0.135-11.313,1.012-16.898
			c-0.011-0.026-0.019-0.073-0.031-0.096L769.853,411.901z"/>
	</g>
	<polyline fill="#EBC14E" points="769.205,410.663 778.686,428.799 799.707,437.278 801.003,432.45 782.867,423.971 
		776.036,404.539 	"/>
	
		<path fill="none" stroke="#AA8A3D" stroke-width="0.2835" stroke-linecap="round" stroke-linejoin="round" stroke-miterlimit="10" d="
		M777.669,409.669c-0.177-0.758-0.354-1.516-0.531-2.274c-0.162-0.693-0.351-1.434-0.885-1.904c-0.302-0.266-0.721-0.462-0.82-0.851
		c-0.106-0.415,0.192-0.94-0.111-1.243c-0.145-0.145-0.371-0.163-0.557-0.249c-0.404-0.188-0.569-0.661-0.786-1.05
		c-0.341-0.612-0.893-1.092-1.513-1.418c-0.911-0.478-2.028-0.631-2.979-0.238c-0.95,0.394-1.665,1.397-1.56,2.42"/>
	<polygon fill="#3B3B3B" points="779.173,488.708 778.199,496.067 797.204,496.067 787.359,490.51 	"/>
	<polygon fill="#3B3B3B" points="766.059,487.561 764.55,496.067 776.647,496.067 773.461,491.016 773.586,488.59 	"/>
	<path fill="#3B3860" d="M787.331,371.809c0.454-0.33,0.846-0.773,1.017-1.308c0.123-0.386,0.141-0.83,0.417-1.126
		c0.542,0.713,0.664,1.724,0.306,2.545c0.395-0.121,0.716-0.419,0.946-0.762c0.229-0.343,0.377-0.733,0.523-1.119
		c0.153-0.003,0.251,0.158,0.312,0.298c0.592,1.36,0.795,2.907,0.452,4.351c-0.343,1.443-1.254,2.767-2.544,3.5
		c-0.519,0.295-1.086,0.492-1.655,0.676c-0.728,0.235-1.465,0.45-2.221,0.573c-1.134,0.183-2.291,0.154-3.439,0.106
		c-0.128-0.005-0.262-0.013-0.373-0.076c-0.097-0.055-0.166-0.148-0.227-0.242c-0.662-1.023-0.562-2.411,0.02-3.482
		c0.582-1.07,1.577-1.861,2.637-2.462c0.619-0.351,1.311-0.681,2.029-0.748C786.215,372.468,786.764,372.221,787.331,371.809z"/>
	<path fill="#D94D52" d="M786.075,372.483c0,0-5.768,12.112-15.823,16.815c0,0-12.925-13.422-4.316-19.159
		C774.544,364.402,786.075,372.483,786.075,372.483z"/>
	
		<path fill="none" stroke="#8D373F" stroke-width="0.2835" stroke-linecap="round" stroke-linejoin="round" stroke-miterlimit="10" d="
		M782.862,371.641c0,0-3.771,8.153-13.009,14.44"/>
</g>
<g>
	<path fill="#BBBDBF" d="M925.561,479.495h-8.175v-44.953c0-3.711-3.01-6.721-6.721-6.721c-3.711,0-6.721,3.01-6.721,6.721v60.797
		C912.969,493.421,920.912,487.713,925.561,479.495z"/>
	<path fill="#BBBDBF" d="M970.144,427.821c-3.711,0-6.721,3.01-6.721,6.721v44.953h-8.96l22.401,6.288v-51.241
		C976.865,430.831,973.855,427.821,970.144,427.821z"/>
	<path fill="#BBBDBF" d="M963.423,532.972h-46.037v-14.269c-3.681,3.818-8.275,6.743-13.442,8.414v165.579h13.442V653.37h46.037
		v39.325h13.442V496.067h-13.442V532.972z M963.423,639.929h-46.037v-40.038h46.037V639.929z M963.423,586.449h-46.037v-40.036
		h46.037V586.449z"/>
</g>
<g>
	<ellipse fill="#D0D2D3" cx="971.947" cy="758.801" rx="51.532" ry="8.297"/>
	<path fill="#D8667A" d="M940.431,760.941c-3.447,0-6.38-2.637-6.688-6.135l-27.969-319.682c-0.322-3.697,2.412-6.957,6.11-7.281
		c3.732-0.292,6.957,2.415,7.281,6.11l27.969,319.683c0.322,3.697-2.412,6.957-6.11,7.281
		C940.825,760.932,940.626,760.941,940.431,760.941z"/>
	<path fill="#D8667A" d="M998.907,760.941c-3.447,0-6.38-2.637-6.688-6.135l-27.967-319.682c-0.322-3.697,2.412-6.957,6.11-7.281
		c3.739-0.292,6.957,2.415,7.281,6.11l27.967,319.683c0.322,3.697-2.412,6.957-6.11,7.281
		C999.301,760.932,999.102,760.941,998.907,760.941z"/>
	<path fill="#D8667A" d="M974.038,476.583H915.56c-3.711,0-6.721-3.01-6.721-6.721c0-3.711,3.01-6.721,6.721-6.721h58.478
		c3.711,0,6.721,3.01,6.721,6.721C980.759,473.573,977.749,476.583,974.038,476.583z"/>
	<path fill="#D8667A" d="M978.05,529.725h-56.193c-3.711,0-6.721-3.01-6.721-6.721c0-3.711,3.01-6.721,6.721-6.721h56.193
		c3.711,0,6.721,3.01,6.721,6.721C984.771,526.715,981.761,529.725,978.05,529.725z"/>
	<path fill="#D8667A" d="M982.065,582.864h-55.612c-3.711,0-6.721-3.01-6.721-6.721c0-3.711,3.01-6.721,6.721-6.721h55.612
		c3.711,0,6.721,3.01,6.721,6.721C988.785,579.854,985.776,582.864,982.065,582.864z"/>
	<path fill="#D8667A" d="M986.079,636.005h-56.573c-3.711,0-6.721-3.01-6.721-6.721c0-3.711,3.01-6.721,6.721-6.721h56.573
		c3.711,0,6.721,3.01,6.721,6.721C992.8,632.996,989.79,636.005,986.079,636.005z"/>
	<path fill="#D8667A" d="M990.401,689.147H935.07c-3.711,0-6.721-3.01-6.721-6.721c0-3.711,3.01-6.721,6.721-6.721h55.332
		c3.711,0,6.721,3.01,6.721,6.721C997.122,686.137,994.112,689.147,990.401,689.147z"/>
</g>
<g>
	<path fill="#007C58" d="M776.647,561.741v-65.674h-97.583c0,18.027-14.613,32.64-32.64,32.64c-18.026,0-32.64-14.613-32.64-32.64
		H507.647c0,22.299,0,44.442,0,65.674c-18.027,0-32.64,14.613-32.64,32.64c0,18.027,14.613,32.64,32.64,32.64
		c0,26.193,0,48.825,0,65.674h268.999v-65.674c-18.027,0-32.64-14.613-32.64-32.64C744.007,576.354,758.62,561.741,776.647,561.741z
		"/>
	<path fill="#007C58" d="M635.753,583.284c-0.48,0.11-1.329,0.264-1.62,0.709c-0.17,0.261-0.18,0.722,0.048,0.961
		c0.134,0.14,0.357,0.143,0.544,0.091c0.186-0.052,0.359-0.149,0.55-0.181c0.19-0.032,0.418,0.024,0.502,0.199
		c0.043,0.09,0.04,0.195,0.05,0.294c0.025,0.245,0.141,0.48,0.319,0.65c0.128,0.122,0.335,0.208,0.474,0.099
		c0.069-0.055,0.101-0.144,0.117-0.231c0.067-0.361-0.047-0.8,0.221-1.051c0.056-0.052,0.133-0.092,0.208-0.077
		c0.214,0.043,0.156,0.4,0.328,0.534c0.138,0.107,0.349,0.005,0.442-0.142c0.093-0.147,0.117-0.328,0.194-0.485
		c0.077-0.156,0.25-0.296,0.414-0.237c0.139,0.049,0.203,0.215,0.332,0.285c0.215,0.118,0.466-0.075,0.621-0.264
		c0.195-0.237,0.374-0.5,0.635-0.661c0.262-0.161,0.642-0.184,0.848,0.043c0.092,0.102,0.136,0.238,0.168,0.372
		c0.077,0.322,0.1,0.659,0.218,0.968s0.366,0.6,0.694,0.642c0.062,0.008,0.126,0.006,0.185-0.013
		c0.125-0.041,0.214-0.158,0.258-0.282c0.101-0.282,0.012-0.591-0.048-0.884c-0.06-0.293-0.078-0.634,0.125-0.854
		c0.08-0.087,0.188-0.146,0.258-0.24c0.115-0.156,0.102-0.369,0.084-0.562c0.188,0.034,0.377-0.091,0.471-0.257
		c0.094-0.166,0.11-0.364,0.107-0.555c-0.001-0.067-0.005-0.137-0.039-0.195c-0.055-0.093-0.17-0.127-0.275-0.149
		c-0.729-0.154-1.489-0.082-2.216,0.081c-0.727,0.164-1.43,0.417-2.144,0.63C637.816,582.825,636.782,583.047,635.753,583.284z"/>
</g>
</svg>
